<?xml version="1.0" encoding="utf-8"?>
<!-- Generator: Adobe Illustrator 21.0.0, SVG Export Plug-In . SVG Version: 6.00 Build 0)  -->
<svg version="1.1" id="图层_1" xmlns="http://www.w3.org/2000/svg" xmlns:xlink="http://www.w3.org/1999/xlink" x="0px" y="0px"
	 viewBox="0 0 1000 1000" style="enable-background:new 0 0 1000 1000;" xml:space="preserve">
<style type="text/css">
	.st0{fill:#FFFFFF;}
</style>
<g>
	<path class="st0" d="M519.4,26.7c-5.2-10-11.8-15.2-18.5-16.3V10c-0.3,0-0.6,0.2-0.9,0.2s-0.6-0.2-0.9-0.2v0.4
		c-6.7,1.1-13.3,6.3-18.5,16.3c0,0-206.9,557.3-206.9,560V990h225.4h1.9h225.4V586.8C726.4,584,519.4,26.7,519.4,26.7z M662.7,502.9
		c-31.2,0-57,38.5-62.4,71.8c-7-35.9-48.5-91.5-99.4-94v-0.2c-0.3,0-0.6,0.1-0.9,0.1s-0.6-0.1-0.9-0.1v0.2
		c-50.8,2.5-92.4,58-99.4,94c-5.4-33.3-31.2-71.8-62.4-71.8c-5.3,0-10.4,1.4-15.2,3.3l103-286.6h74h1.9h74l103,286.6
		C673.1,504.2,668,502.9,662.7,502.9z"/>
</g>
</svg>
