<?xml version="1.0" encoding="utf-8"?>
<!-- Generator: Adobe Illustrator 21.0.0, SVG Export Plug-In . SVG Version: 6.00 Build 0)  -->
<svg version="1.1" id="图层_1" xmlns="http://www.w3.org/2000/svg" xmlns:xlink="http://www.w3.org/1999/xlink" x="0px" y="0px"
	 viewBox="0 0 1000 1000" style="enable-background:new 0 0 1000 1000;" xml:space="preserve">
<style type="text/css">
	.st0{fill:#391085;}
</style>
<g>
	<g transform="translate(0.000000,512.000000) scale(0.100000,-0.100000)">
		<path class="st0" d="M760.2,4988.1c-317.5-86.1-545-315.5-627.3-634.9c-44-166.4-44-8297.8,0-8464.2
			c84.1-323.2,311.7-550.8,634.9-634.9c166.4-44,8297.8-44,8464.2,0c323.2,84.2,550.8,311.7,634.9,634.9
			c44,166.4,44,8297.8,0,8464.2c-84.2,323.2-311.7,550.8-634.9,634.9C9071.5,5030.2,915.2,5028.3,760.2,4988.1z M7369.4,2071.7
			c133.9-66.9,204.6-202.7,187.4-353.8c-5.7-65-242.9-489.6-1132.1-2031C5807-1384,5283-2280.9,5260.1-2305.7
			c-53.5-61.2-177.8-116.7-260.1-116.7c-82.2,0-206.5,55.5-260.1,116.7C4717-2280.9,4193-1384,3575.3-313
			c-910.3,1577.7-1126.4,1962.1-1134,2032.9c-9.6,99.4,32.5,229.5,97.5,290.7c112.8,105.2-36.3,99.4,2457.4,99.4
			C7247,2109.9,7298.7,2109.9,7369.4,2071.7z"/>
	</g>
</g>
</svg>
