<?xml version="1.0" encoding="utf-8"?>
<!-- Generator: Adobe Illustrator 21.0.0, SVG Export Plug-In . SVG Version: 6.00 Build 0)  -->
<svg version="1.1" id="图层_1" xmlns="http://www.w3.org/2000/svg" xmlns:xlink="http://www.w3.org/1999/xlink" x="0px" y="0px"
	 viewBox="0 0 1000 1000" style="enable-background:new 0 0 1000 1000;" xml:space="preserve">
<style type="text/css">
	.st0{fill:#FFFFFF;}
	.st1{fill:#391085;}
</style>
<path class="st0" d="M345,90c3.2-17.4,11.9-34.6,26.8-44.1c10.7-6.8,23.6-9.2,36.1-11.1c72.5-10.8,146.7-10.2,219,1.9
	c6.5,1.1,13.3,2.4,18.5,6.4c10.8,8.2,11.2,23.8,11.5,37.4c0.4,14.5,1.9,29,4.4,43.2c0.8,4.4,1.8,9.1,5.1,12.2
	c4.2,4.1,10.7,4.2,16.5,4.1c36.7-0.6,73.5-1.1,110.2-1.7c8-0.1,16.3-0.2,23.4,3.5c7.1,3.7,12.1,11.9,9,19.3v150.1
	c-1.7,0.6-3.6,0.7-5.3,1.2c-7.9,17.6-7.4,37.6-7.2,56.9c0.4,42.7-1.9,85.3-5.5,127.8v99c-5.5,2.5-10.5,7.5-16.5,7.5v240
	c-7.3-1.8-15.1,6-15,13.5v99c-8.1,6.4-18.5,8.9-28.7,10.9c-39.8,7.6-80.8,5.6-121.3,5.6H278c0.7-2.3-0.5-5-2.4-6.4
	c-4.6,2.2-9.9,2.7-14.8,1.4c-8.2-18.6-22.5-34.4-28-53.9c-2.8-10.1-3.2-20.7-3.5-31.1c-0.6-19.7-1.2-39.4-1.8-59.1
	c-0.2-6.3-0.4-12.7-2.4-18.7c-3.9-11.5-12.1-20.3-16-31.7V419c-2.6,0.4-5.2,0-7.6-1c0-4.7-1.8-9.2-3.4-13.6
	c-6.2-17.8-8.6-37.2-5.5-55.8c0,0,0-209.7,0-209.8c0-0.8,96,4.3,104.7,4.6c9.5,0.3,41.5,5.5,47.4-2.3
	C349.8,134.4,343.1,100.3,345,90z"/>
<path class="st1" d="M678.5,127.6V88.4C678.5,45.1,643,10,599,10H400.8c-43.8,0-79.4,35.1-79.4,78.4v39.2H123.1v39.2H164l39.7,744.8
	c0,43.3,35.5,78.4,79.4,78.4h436.4c43.8,0,79.4-35.1,79.4-78.4l39-744.8H877v-39.2C877,127.6,678.5,127.6,678.5,127.6z M361.1,88.4
	c0-21.6,17.8-39.2,39.7-39.2h198.4c21.9,0,39.7,17.6,39.7,39.2v39.2H361.1V88.4z M759.2,909.6l-0.1,1v1c0,21.6-17.8,39.2-39.7,39.2
	H283c-21.9,0-39.7-17.6-39.7-39.2v-1v-1l-39.6-742.7h594.4L759.2,909.6z M519.8,245.2H480v627.2h39.7L519.8,245.2L519.8,245.2z
	 M401.7,871.1l-40.6-626l-39.6,2.5l40.6,626L401.7,871.1z M678.8,246.4l-39.6-2.5l-40,627.2l39.6,2.5L678.8,246.4z"/>
</svg>
