<?xml version="1.0" encoding="utf-8"?>
<!-- Generator: Adobe Illustrator 21.0.0, SVG Export Plug-In . SVG Version: 6.00 Build 0)  -->
<svg version="1.1" id="图层_1" xmlns="http://www.w3.org/2000/svg" xmlns:xlink="http://www.w3.org/1999/xlink" x="0px" y="0px"
	 viewBox="0 0 1000 1000" style="enable-background:new 0 0 1000 1000;" xml:space="preserve">
<style type="text/css">
	.st0{fill:#391085;}
	.st1{fill:#120338;}
</style>
<g>
	<path class="st0" d="M152.8,260.1l-48,48c-6.3,6.3-8.2,16.1-4.8,24.4c3.4,8.3,11.5,14,20.4,14H323c12.2,0,22.2-10.5,22.2-22.7
		V121.1c0-8.9-5.4-17-13.7-20.4c-8.2-3.4-17.7-1.5-24.1,4.8l-48,48L132.1,26.3C111.4,5.6,77.8,5.6,57,26.3L25.6,57.8
		C15.6,67.7,10,81.3,10,95.3c0,14.1,5.6,27.6,15.6,37.6L152.8,260.1z"/>
	<path class="st0" d="M323,654.9H120.4c-9,0-17,5-20.4,13.2s-1.5,17.5,4.8,23.9l48,47.9L25.5,867.2c-9.9,10-15.5,23.5-15.5,37.5
		c0,14.1,5.6,27.6,15.5,37.5L57,973.7c20.7,20.7,54.4,20.7,75.1,0l127.2-127.3l48,48c6.4,6.3,15.9,8.2,24.1,4.8
		c8.3-3.4,13.7-11.4,13.7-20.3V676.3C345.2,664.1,335.2,654.9,323,654.9z"/>
	<path class="st0" d="M847.2,739.9l48-48c6.3-6.3,8.2-15.4,4.8-23.7c-3.4-8.2-11.4-13.2-20.4-13.2H677c-12.2,0-22.1,9.1-22.1,21.3
		v202.6c0,8.9,5.4,17,13.6,20.4c8.3,3.4,17.8,1.5,24.1-4.8l48-48l127.3,127.3c20.7,20.7,54.3,20.7,75.1,0l31.5-31.5
		c10-10,15.6-23.5,15.6-37.5c0-14.1-5.6-27.6-15.6-37.5L847.2,739.9z"/>
	<path class="st0" d="M677,346.5h202.6c9,0,17-5.7,20.4-14c3.4-8.2,1.5-17.9-4.8-24.2l-48-48.1l127.2-127.3
		c10-9.9,15.6-23.5,15.6-37.6s-5.6-27.6-15.6-37.5l-31.5-31.5c-20.7-20.7-54.4-20.7-75,0L740.6,153.5l-48-48
		c-6.3-6.3-15.8-8.2-24.1-4.8c-8.2,3.4-13.6,11.5-13.6,20.4v202.6C654.8,335.9,664.8,346.5,677,346.5z"/>
	<path class="st1" d="M500,342.3c87.1,0,157.7,70.6,157.7,157.7S587.1,657.7,500,657.7S342.3,587.1,342.3,500S412.9,342.3,500,342.3
		z"/>
</g>
</svg>
