<?xml version="1.0" encoding="utf-8"?>
<!-- Generator: Adobe Illustrator 21.0.0, SVG Export Plug-In . SVG Version: 6.00 Build 0)  -->
<svg version="1.1" id="图层_1" xmlns="http://www.w3.org/2000/svg" xmlns:xlink="http://www.w3.org/1999/xlink" x="0px" y="0px"
	 viewBox="0 0 980 980.3" style="enable-background:new 0 0 980 980.3;" xml:space="preserve">
<style type="text/css">
	.st0{fill:#391085;}
	.st1{fill:#FFFFFF;}
</style>
<path class="st0" d="M979.9,487.5L979.2,20l-4.6-6.2c-2.4-3.3-7.9-7.9-12.1-9.9c-7-3.7-34.1-4-472.3-4C52,0,24.9,0.2,17.6,4
	c-4.2,2-9.9,7-12.6,11.2L0,22.7v467.2c0,462.4,0,467.2,4.4,474.5c2.4,4,7.5,9,11.5,11.5c7.3,4.4,12.1,4.4,474.5,4.4h467.2l7.5-5.1
	c4.2-2.6,9.3-8.4,11.5-12.6C980.1,955.4,980.3,929.2,979.9,487.5z"/>
<path class="st1" d="M781.7,290C899,407.3,893.9,603.2,770.4,726.8L691,806.1c-13.1,13.1-33.9,13.7-46.4,1.2l-7.5-7.5
	c-12.5-12.5-11.9-33.2,1.2-46.4l79.3-79.3c92.9-92.9,96.7-240.3,8.5-328.6s-235.6-84.4-328.6,8.5L251.2,500.3l196.5-5.1
	c21.1-0.5,37.8,16.2,37.3,37.3c-0.5,20.5-18.8,38.7-39.3,39.3l-288.8,7.5c-10.2,0.3-19.7-3.5-26.8-10.5c-7-7-10.8-16.5-10.5-26.8
	l7.5-288.9c0.5-20.4,18.8-38.7,39.3-39.3c21.1-0.5,37.8,16.2,37.3,37.3l-5.1,196.5l146.3-146.3C468.4,177.7,664.3,172.7,781.7,290z"
	/>
</svg>
