<?xml version="1.0" encoding="utf-8"?>
<!-- Generator: Adobe Illustrator 21.0.0, SVG Export Plug-In . SVG Version: 6.00 Build 0)  -->
<svg version="1.1" id="图层_1" xmlns="http://www.w3.org/2000/svg" xmlns:xlink="http://www.w3.org/1999/xlink" x="0px" y="0px"
	 viewBox="0 0 1000 1000" style="enable-background:new 0 0 1000 1000;" xml:space="preserve">
<style type="text/css">
	.st0{fill:#391085;}
</style>
<g>
	<g transform="translate(0.000000,512.000000) scale(0.100000,-0.100000)">
		<path class="st0" d="M9239.6-4748c317.5,86.1,545,315.5,627.3,634.9c44,166.4,44,8297.8,0,8464.2
			c-84.1,323.2-311.7,550.8-634.9,634.9c-166.4,44-8297.8,44-8464.2,0c-323.2-84.2-550.8-311.7-634.9-634.9
			c-44-166.4-44-8297.8,0-8464.2c84.2-323.2,311.7-550.8,634.9-634.9C928.3-4790.1,9084.6-4788.2,9239.6-4748z M2630.4-1831.6
			c-133.9,66.9-204.6,202.7-187.4,353.8c5.7,65,242.9,489.6,1132.1,2031C4192.8,1624.1,4716.8,2521,4739.7,2545.8
			c53.5,61.2,177.8,116.7,260.1,116.7c82.2,0,206.5-55.5,260.1-116.7c22.9-24.8,546.9-921.7,1164.6-1992.7
			c910.3-1577.7,1126.4-1962.1,1134-2032.9c9.6-99.4-32.5-229.5-97.5-290.7c-112.8-105.2,36.3-99.4-2457.4-99.4
			C2752.8-1869.8,2701.1-1869.8,2630.4-1831.6z"/>
	</g>
</g>
</svg>
