<?xml version="1.0" encoding="utf-8"?>
<!-- Svg Vector Icons : http://www.sfont.cn -->
<!DOCTYPE svg PUBLIC "-//W3C//DTD SVG 1.1//EN" "http://www.w3.org/Graphics/SVG/1.1/DTD/svg11.dtd">
<svg version="1.1" xmlns="http://www.w3.org/2000/svg" xmlns:xlink="http://www.w3.org/1999/xlink" x="0px" y="0px" viewBox="0 0 1000 1000" enable-background="new 0 0 1000 1000" xml:space="preserve">
<metadata> Svg Vector Icons : http://www.sfont.cn </metadata>
<g><path d="M293.1,500c0,114.3,92.7,206.9,206.9,206.9C614.3,706.9,707,614.3,707,500c0-114.3-92.7-206.9-206.9-206.9C385.7,293.1,293.1,385.7,293.1,500z"/><path d="M846.5,153.5C753.9,61,630.9,10,500,10c-130.9,0-253.9,51-346.5,143.5C61,246.1,10,369.1,10,500c0,130.9,51,253.9,143.5,346.5C246.1,939,369.1,990,500,990c130.9,0,253.9-51,346.5-143.5S990,630.9,990,500C990,369.1,939,246.1,846.5,153.5z M836.4,836.4C746.6,926.3,627.1,975.8,500,975.8c-127.1,0-246.6-49.5-336.4-139.3C73.7,746.6,24.2,627.1,24.2,500c0-127.1,49.5-246.6,139.3-336.4C253.4,73.7,372.9,24.2,500,24.2c127.1,0,246.6,49.5,336.4,139.3c89.9,89.9,139.3,209.3,139.3,336.4C975.8,627.1,926.3,746.6,836.4,836.4z"/></g>
</svg>