<?xml version="1.0" encoding="utf-8"?>
<!-- Generator: Adobe Illustrator 21.0.0, SVG Export Plug-In . SVG Version: 6.00 Build 0)  -->
<svg version="1.1" id="图层_1" xmlns="http://www.w3.org/2000/svg" xmlns:xlink="http://www.w3.org/1999/xlink" x="0px" y="0px"
	 viewBox="0 0 1000 1000" style="enable-background:new 0 0 1000 1000;" xml:space="preserve">
<style type="text/css">
	.st0{fill:#FFFFFF;}
</style>
<g>
	<path class="st0" d="M293.1,500c0,114.3,92.7,206.9,206.9,206.9c114.3,0,207-92.6,207-206.9s-92.7-206.9-206.9-206.9
		C385.7,293.1,293.1,385.7,293.1,500z"/>
	<path class="st0" d="M846.5,153.5C753.9,61,630.9,10,500,10S246.1,61,153.5,153.5C61,246.1,10,369.1,10,500s51,253.9,143.5,346.5
		C246.1,939,369.1,990,500,990s253.9-51,346.5-143.5S990,630.9,990,500S939,246.1,846.5,153.5z M836.4,836.4
		C746.6,926.3,627.1,975.8,500,975.8s-246.6-49.5-336.4-139.3C73.7,746.6,24.2,627.1,24.2,500s49.5-246.6,139.3-336.4
		C253.4,73.7,372.9,24.2,500,24.2s246.6,49.5,336.4,139.3c89.9,89.9,139.3,209.3,139.3,336.4C975.8,627.1,926.3,746.6,836.4,836.4z"
		/>
</g>
</svg>
