<?xml version="1.0" encoding="utf-8"?>
<!-- Generator: Adobe Illustrator 21.0.0, SVG Export Plug-In . SVG Version: 6.00 Build 0)  -->
<svg version="1.1" id="图层_1" xmlns="http://www.w3.org/2000/svg" xmlns:xlink="http://www.w3.org/1999/xlink" x="0px" y="0px"
	 viewBox="0 0 1000 1000" style="enable-background:new 0 0 1000 1000;" xml:space="preserve">
<style type="text/css">
	.st0{fill:#FFFFFF;}
</style>
<g>
	<path class="st0" d="M678.5,127.6V88.4c0-43.3-35.5-78.4-79.4-78.4H400.8c-43.8,0-79.4,35.1-79.4,78.4v39.2H123.1v39.2H164
		l39.7,744.8c0,43.3,35.5,78.4,79.4,78.4h436.4c43.8,0,79.4-35.1,79.4-78.4l39-744.8H877v-39.2C877,127.6,678.5,127.6,678.5,127.6z
		 M361.1,88.4c0-21.6,17.8-39.2,39.7-39.2h198.4c21.9,0,39.7,17.6,39.7,39.2v39.2H361.1V88.4z M759.2,909.6l-0.1,1v1
		c0,21.6-17.8,39.2-39.7,39.2H283c-21.9,0-39.7-17.6-39.7-39.2v-1v-1l-39.6-742.7h594.4L759.2,909.6z M519.8,245.2h-39.7v627.2h39.7
		V245.2z M401.7,871.1l-40.6-626l-39.6,2.5l40.6,626L401.7,871.1z M678.8,246.4l-39.6-2.5l-40,627.2l39.6,2.5L678.8,246.4z"/>
</g>
</svg>
