<?xml version="1.0" encoding="utf-8"?>
<!-- Generator: Adobe Illustrator 21.0.0, SVG Export Plug-In . SVG Version: 6.00 Build 0)  -->
<svg version="1.1" id="图层_1" xmlns="http://www.w3.org/2000/svg" xmlns:xlink="http://www.w3.org/1999/xlink" x="0px" y="0px"
	 viewBox="0 0 1000 1000" style="enable-background:new 0 0 1000 1000;" xml:space="preserve">
<style type="text/css">
	.st0{fill:#FFFFFF;}
</style>
<g>
	<g transform="translate(0.000000,511.000000) scale(0.100000,-0.100000)">
		<path class="st0" d="M276.2,4971.7c-41.9-19.8-99.1-70.5-125.6-112.3l-50.7-74.9V112.2c0-4623.8,0-4672.3,44.1-4745
			c24.2-39.6,74.9-90.3,114.6-114.6c72.7-44.1,121.2-44.1,4745-44.1h4672.3l74.9,50.7c41.9,26.4,92.5,83.7,114.6,125.6
			c35.3,72.7,37.5,334.8,33,4751.6l-6.6,4674.5l-46.3,61.7c-24.2,33-79.3,79.3-121.2,99.1c-70.5,37.4-341.4,39.6-4722.9,39.6
			C619.9,5011.4,348.9,5009.2,276.2,4971.7z M8666.9,3876.9c127.8-66.1,130-50.7-72.7-1321.7c-180.6-1127.9-187.2-1167.5-244.5-1216
			c-37.5-33-85.9-50.7-136.6-50.7c-74.9,0-107.9,26.4-414.1,330.4l-330.4,330.4l-738-740.2c-482.4-484.6-768.8-755.6-826.1-782
			c-381.1-178.4-793,246.7-603.6,625.6c30.8,57.3,315,361.3,775.4,823.9l729.2,733.5l-323.8,326c-310.6,315-323.8,330.4-323.8,416.3
			c0,152,63.9,187.2,453.8,248.9c180.6,28.6,680.7,107.9,1110.3,176.2c429.6,70.5,804,127.8,832.7,130
			C8583.2,3909.9,8633.9,3894.5,8666.9,3876.9z M4503.5-149.9c136.6-70.5,226.9-207.1,240.1-356.9c17.6-226.9,11-235.7-810.6-1057.4
			l-749-749l330.4-330.4c288.6-293,330.4-341.4,330.4-405.3c0-88.1-30.8-147.6-92.5-180.6c-26.4-13.2-563.9-107.9-1193.9-209.3
			c-1242.4-196.1-1207.2-193.9-1297.5-72.7L1219-3452l182.8,1163.1c171.8,1083.8,189.4,1169.7,240.1,1224.8
			c52.9,57.3,90.3,70.5,185,63.9c24.2,0,189.4-147.6,370.1-326l326-323.8l744.6,740.2c449.4,449.4,773.2,755.6,819.5,775.4
			C4203.9-83.8,4393.4-90.4,4503.5-149.9z"/>
	</g>
</g>
</svg>
