<?xml version="1.0" encoding="utf-8"?>
<!-- Svg Vector Icons : http://www.sfont.cn -->
<!DOCTYPE svg PUBLIC "-//W3C//DTD SVG 1.1//EN" "http://www.w3.org/Graphics/SVG/1.1/DTD/svg11.dtd">
<svg version="1.1" xmlns="http://www.w3.org/2000/svg" xmlns:xlink="http://www.w3.org/1999/xlink" x="0px" y="0px" viewBox="0 0 1000 1000" enable-background="new 0 0 1000 1000" xml:space="preserve">
<metadata> Svg Vector Icons : http://www.sfont.cn </metadata>
<g><g transform="translate(0.000000,128.000000) scale(0.100000,-0.100000)"><path d="M4150.6,1135.4c-1741.7-291.6-3330-1711-3882.4-3468.1c-191.8-598.5-222.5-1734-76.7-2416.9c422-1864.5,1933.5-3383.7,3767.3-3767.4C6214.5-8992.6,8493.3-7834,9460.1-5724c1266,2754.5-314.6,6000.1-3284,6759.6C5623.8,1181.4,4680,1227.5,4150.6,1135.4z M6183.9-1112.7c537.1-260.9,1081.8-798,1365.7-1342.7c222.5-422,245.5-521.7,245.5-1227.6c0-713.5-15.4-805.6-245.5-1273.6c-299.3-606.2-782.6-1074.2-1388.7-1358.1C5777.2-6499,5631.4-6522,4956.2-6522c-713.5,0-798,23-1227.6,245.5c-560.1,291.6-1028.1,767.3-1319.7,1327.4C2217-4565.4,2194-4450.3,2194-3721.4c0,959.1,130.5,1312,698.2,1918.2c675.2,721.2,1189.3,928.4,2217.4,897.7C5654.4-920.9,5884.6-966.9,6183.9-1112.7z"/></g></g>
</svg>