<?xml version="1.0" encoding="utf-8"?>
<!-- Svg Vector Icons : http://www.sfont.cn -->
<!DOCTYPE svg PUBLIC "-//W3C//DTD SVG 1.1//EN" "http://www.w3.org/Graphics/SVG/1.1/DTD/svg11.dtd">
<svg version="1.1" xmlns="http://www.w3.org/2000/svg" xmlns:xlink="http://www.w3.org/1999/xlink" x="0px" y="0px" viewBox="0 0 1000 1000" enable-background="new 0 0 1000 1000" xml:space="preserve">
<metadata> Svg Vector Icons : http://www.sfont.cn </metadata>
<g><path d="M990,976.6V23.4c0-7.4-6-13.4-13.4-13.4H23.4C16,10,10,16,10,23.4v953.1c0,7.4,6,13.4,13.4,13.4h953.1C984,990,990,984,990,976.6z M146.1,163.1c0-7.4,6-13.4,13.4-13.4h674.4c7.4,0,13.4,6,13.4,13.4v674.4c0,7.4-6,13.4-13.4,13.4H159.5c-7.4,0-13.4-6-13.4-13.4V163.1z"/></g>
</svg>