<?xml version="1.0" encoding="utf-8"?>
<!-- Generator: Adobe Illustrator 21.0.0, SVG Export Plug-In . SVG Version: 6.00 Build 0)  -->
<svg version="1.1" id="图层_1" xmlns="http://www.w3.org/2000/svg" xmlns:xlink="http://www.w3.org/1999/xlink" x="0px" y="0px"
	 viewBox="0 0 1000 1000" style="enable-background:new 0 0 1000 1000;" xml:space="preserve">
<style type="text/css">
	.st0{fill:#FFFFFF;}
</style>
<g>
	<path class="st0" d="M807.3,624.7c-100.7,0-182.7,81.9-182.7,182.7c0,4.2,0.2,8.4,0.4,12.6c-196,55.7-289.6,36.1-333.7,9.4
		c-32.8-19.9-38.7-44.2-39.2-46.5l-0.1-0.4l-0.3-1C206.9,610,523.2,502.1,526.4,501l0.9-0.3c54.8-21.8,99.9-48.5,134.1-79.4
		c27.9-25.3,48.7-53.4,61.6-83.6c22.6-52.6,13.7-93.5,13.3-95.2l-0.1-0.5c-16.4-62.7-50.7-107.8-101.9-134.1
		c-50.5-26-115.7-33-193.6-21c-37.8,5.9-69.2,14.9-86.5,20.5C323.4,49.5,262.5,10,192.7,10C91.9,10,10,91.9,10,192.7
		c0,100.7,81.9,182.7,182.7,182.7c100.7,0,182.7-81.9,182.7-182.7c0-18.9-2.9-37.1-8.2-54.2c43-13.5,165.1-45.3,251.7-0.8
		c42.3,21.7,70.7,59.5,84.6,112.3c0.5,2.9,6,35.2-12.4,76.5c-25.7,57.8-86.5,107.2-175.8,142.8c-7.6,2.6-88.5,30.6-164.9,81.3
		c-46.9,31.2-82.3,64.6-105.2,99.2c-29.7,45-38.4,92-26,139.7c1.4,6.6,10.6,40.9,52.8,67.4c32.3,20.2,75.8,31.1,129.3,32.3
		c3.3,0.1,6.5,0.1,9.9,0.1c61,0,134.6-12,219.4-35.9C651,931.9,722.5,990,807.3,990C908.1,990,990,908.1,990,807.3
		C990,706.6,908,624.7,807.3,624.7L807.3,624.7z M192.7,341.7c-82.2,0-149-66.8-149-149s66.8-149,149-149s149,66.8,149,149
		C341.7,274.8,274.8,341.7,192.7,341.7L192.7,341.7z M807.3,956.3c-82.2,0-149-66.8-149-149s66.8-149,149-149s149,66.8,149,149
		S889.5,956.3,807.3,956.3L807.3,956.3z"/>
</g>
</svg>
