<?xml version="1.0" encoding="utf-8"?>
<!-- Generator: Adobe Illustrator 21.0.0, SVG Export Plug-In . SVG Version: 6.00 Build 0)  -->
<svg version="1.1" id="图层_1" xmlns="http://www.w3.org/2000/svg" xmlns:xlink="http://www.w3.org/1999/xlink" x="0px" y="0px"
	 viewBox="0 0 452.7 1000" style="enable-background:new 0 0 452.7 1000;" xml:space="preserve">
<style type="text/css">
	.st0{fill:#FFFFFF;stroke:#231815;stroke-linecap:round;stroke-miterlimit:10;}
	.st1{fill:#004F8B;}
</style>
<polygon class="st0" points="226.3,981.7 447.3,412.7 5.3,412.7 "/>
<path class="st1" d="M207,973.1c5.2,10.1,11.8,15.4,18.5,16.5v0.4c0.3,0,0.6-0.2,0.9-0.2s0.6,0.2,0.9,0.2v-0.4
	c6.7-1.1,13.3-6.4,18.5-16.5c0,0,206.9-563,206.9-565.7V0H227.3h-1.9H0v407.3C0,410.1,207,973.1,207,973.1z M63.7,492.1
	c31.2,0,57-38.9,62.4-72.5c7,36.3,48.5,92.4,99.4,95v0.2c0.3,0,0.6-0.1,0.9-0.1s0.6,0.1,0.9,0.1v-0.2c50.8-2.5,92.4-58.6,99.4-95
	c5.4,33.6,31.2,72.5,62.4,72.5c5.3,0,10.4-1.4,15.2-3.3l-103,289.5h-74h-1.9h-74l-103-289.5C53.3,490.8,58.4,492.1,63.7,492.1z"/>
</svg>
