<?xml version="1.0" encoding="utf-8"?>
<!-- Generator: Adobe Illustrator 21.0.0, SVG Export Plug-In . SVG Version: 6.00 Build 0)  -->
<svg version="1.1" id="图层_1" xmlns="http://www.w3.org/2000/svg" xmlns:xlink="http://www.w3.org/1999/xlink" x="0px" y="0px"
	 width="512px" height="512px" viewBox="0 0 512 512" style="enable-background:new 0 0 512 512;" xml:space="preserve">
<style type="text/css">
	.st0{fill:#6F808E;}
	.st1{fill:#6F808F;}
	.st2{fill:#020202;}
	.st3{fill:#040404;}
	.st4{fill:#667685;}
	.st5{fill:#586776;}
	.st6{fill:#080808;}
	.st7{fill:#151515;}
	.st8{fill:#61707F;}
	.st9{fill:#1D1D1D;}
	.st10{fill:#181818;}
	.st11{fill:#0B0B0B;}
	.st12{fill:#111111;}
	.st13{fill:#171717;}
	.st14{fill:#0C0C0C;}
	.st15{fill:#EDEEEF;}
	.st16{fill:#0A0A0A;}
	.st17{fill:#697987;}
	.st18{fill:#61717F;}
	.st19{fill:#4C4C4C;}
	.st20{fill:#F8F8F8;}
	.st21{fill:#1C1C1C;}
	.st22{fill:#1F1F1F;}
	.st23{fill:#6F6F6F;}
	.st24{fill:#627280;}
	.st25{fill:#373737;}
	.st26{fill:#596877;}
	.st27{fill:#6B7B89;}
	.st28{fill:#4D4D4D;}
	.st29{fill:#4F4F4F;}
	.st30{fill:#EBEBEB;}
	.st31{fill:#818181;}
	.st32{fill:#5F6F7D;}
	.st33{fill:#0F0F0F;}
	.st34{fill:#232323;}
	.st35{fill:#808080;}
	.st36{fill:#222222;}
	.st37{fill:#4E4E4E;}
	.st38{fill:#B8B8B8;}
	.st39{fill:#D7D7D7;}
	.st40{fill:#D6D6D7;}
	.st41{fill:#202020;}
	.st42{fill:#131313;}
	.st43{fill:#B5B5B5;}
	.st44{fill:#8D8D8D;}
	.st45{fill:#2A2A2A;}
	.st46{fill:#393939;}
	.st47{fill:#505050;}
	.st48{fill:#2F2F2F;}
	.st49{fill:#6B6B6B;}
	.st50{fill:#C1C1C1;}
	.st51{fill:#ACACAC;}
	.st52{fill:#DCDCDC;}
	.st53{fill:#EBEEEF;}
	.st54{fill:#1B1B1B;}
	.st55{fill:#363636;}
	.st56{fill:#737373;}
	.st57{fill:#C0C0C0;}
	.st58{fill:#CECECE;}
	.st59{fill:#939393;}
	.st60{fill:#464646;}
	.st61{fill:#B0B0B0;}
	.st62{fill:#DADADA;}
	.st63{fill:#637380;}
	.st64{fill:#C4C4C4;}
	.st65{fill:#697A88;}
	.st66{fill:#6A7A88;}
	.st67{fill:#E6E6E6;}
	.st68{fill:#6A6A6A;}
	.st69{fill:#050505;}
	.st70{fill:#727272;}
	.st71{fill:#60707F;}
	.st72{fill:#A5A5A5;}
	.st73{fill:#686868;}
	.st74{fill:#7B7B7B;}
	.st75{fill:#F3F3F3;}
	.st76{fill:#6C7B89;}
	.st77{fill:#767676;}
	.st78{fill:#7A7A7A;}
	.st79{fill:#797979;}
	.st80{fill:#E3E5E7;}
	.st81{fill:#0E0E0E;}
	.st82{fill:#C7C7C7;}
	.st83{fill:#4A4A4A;}
	.st84{fill:#323232;}
	.st85{fill:#545454;}
	.st86{fill:#5E5E5E;}
	.st87{fill:#9F9F9F;}
	.st88{fill:#303030;}
	.st89{fill:#E6E7E9;}
	.st90{fill:#808C98;}
	.st91{fill:#F7F7F7;}
	.st92{fill:#D0D0D0;}
	.st93{fill:#FAFAFA;}
	.st94{fill:#697988;}
	.st95{fill:#8E8E8E;}
	.st96{fill:#9FABB4;}
	.st97{fill:#818E98;}
	.st98{fill:#E0E3E7;}
	.st99{fill:#FBFBFB;}
	.st100{fill:#FAFDFD;}
	.st101{fill:#E1E2E3;}
	.st102{fill:#D2D7DB;}
	.st103{fill:#5B6C7A;}
	.st104{fill:#6D7D8B;}
	.st105{fill:#6C7C8A;}
	.st106{fill:#6B7C8B;}
	.st107{fill:#C9D0D4;}
	.st108{fill:#898989;}
	.st109{fill:#6A7B89;}
	.st110{fill:#343434;}
	.st111{fill:#A6A6A6;}
	.st112{fill:#AEAEAE;}
	.st113{fill:#868686;}
	.st114{fill:#D4D4D4;}
	.st115{fill:#EDEDED;}
	.st116{fill:#F9F9F9;}
	.st117{fill:#CFCFCF;}
	.st118{fill:#484848;}
	.st119{fill:#353535;}
	.st120{fill:#8F8F8F;}
	.st121{fill:#5E6D7C;}
	.st122{fill:#919191;}
	.st123{fill:#929292;}
	.st124{fill:#5B5B5B;}
	.st125{fill:#575757;}
	.st126{fill:#CDCDCD;}
	.st127{fill:#A4A4A4;}
	.st128{fill:#555555;}
	.st129{fill:#878787;}
	.st130{fill:#B3B3B3;}
	.st131{fill:#191919;}
	.st132{fill:#646464;}
	.st133{fill:#E3E3E3;}
	.st134{fill:#2C2C2C;}
	.st135{fill:#B4B4B4;}
	.st136{fill:#434343;}
	.st137{fill:#848484;}
	.st138{fill:#616161;}
	.st139{fill:#2B2B2B;}
	.st140{fill:#262626;}
	.st141{fill:#212121;}
	.st142{fill:#6D6D6D;}
	.st143{fill:#E0E0E0;}
	.st144{fill:#9B9B9B;}
	.st145{fill:#585858;}
	.st146{fill:#F0F0F0;}
	.st147{fill:#A2A2A2;}
	.st148{fill:#A0A0A0;}
	.st149{fill:#B7B7B7;}
	.st150{fill:#060606;}
</style>
<g>
	<path class="st0" d="M112.3,195c-20.1,0-40.2,0-61.5,0c-2.8-15.8,9.8-27.2,9.8-41.4c6.8-5.2,10.7-11.9,10.3-20.7
		c1.7-1.7,3.4-3.4,5.2-5.2c1.7-1.7,3.4-3.4,5.2-5.2c7.7-0.4,4.4-6.4,5.2-10.3c1.7-1.7,3.4-3.4,5.2-5.2c1.7-1.7,3.4-3.4,5.2-5.2
		c1.7-1.7,3.4-3.4,5.2-5.2c14.3-7.2,22.4-21.6,36.6-29.6c29.1-16.6,57.6-32.5,92.4-32.6c8.7,0,17.5-4.5,26.2-4.5
		c8.7,0,17.4,3.4,26.2,4.7c9.7,1.4,19.4-1.7,29.1,4.8c6.9,4.6,17.2,3.7,25.4,6.9c8.1,3.1,15.4,8.5,23.2,12.4
		c2.8,1.4,6.3,1.3,9.5,1.9c1.7,1.7,3.4,3.4,5.2,5.2c1.7,1.7,3.4,3.4,5.2,5.2c1.7,0,3.4,0,5.2,0c1.7,1.7,3.4,3.4,5.2,5.2
		s3.4,3.4,5.2,5.2c1.7,1.7,3.4,3.4,5.2,5.2c1.7,1.7,3.4,3.4,5.2,5.2c3.4,3.4,6.9,6.9,10.3,10.3c6.9,6.9,13.8,13.8,20.7,20.7
		c0,1.7,0,3.4,0,5.2c1.7,1.7,3.4,3.4,5.2,5.2s3.4,3.4,5.2,5.2c0,1.7,0,3.4,0,5.2c1.7,1.7,3.4,3.4,5.2,5.2c0,1.7,0,3.4,0,5.2
		c5.5,13,11.1,25.9,17.7,41.4c-19.9,0-36.9,0-53.9,0c-5.4-6.7-4.7-18-15.5-20.7c-6.8-12.2-11.7-25.7-26.4-34.5
		c1.1-6.2,2.4-13.7,4.1-23.1c-4.4,1.7-8.3,3.2-6.6,2.6c-16.6-0.4-26.6-3.7-31.1-16.9c-1.2-3.5-11.5-3.9-17.6-5.7
		c-11.3-3.4-22.6-6.7-33.3-9.9c-2.4,1.7-4.4,3.1-7.1,4.9c-1-5-1.5-7.3-2-9.8c-6.9-0.6-13.3-1.2-18.3-1.7c-1.5-4.2-2.4-6.6-4-10.9
		c-4.7,7.3-8,12.4-11.6,17.9c-4.3-2.4-7.7-4.3-11-6.2c-11.6,6.4-22.9,8.9-35.1,0.1c-5.5,6.7-11.4,13.7-17.2,20.7c-2.4,0-4.9,0-7.4,0
		c-2.2,3.8-3.9,8.2-6.9,11.4c-3.3,3.6-7.7,6.2-11.6,9.3c-9,8.6-18,17.3-28,26.9c3.5,2,5.4,3,7.3,4.1c0,1.7,0,3.4,0,5.2
		c-1.7,0-3.4,0-5.2,0C119,166.8,117,181.7,112.3,195z M200.7,70.5c-0.3,0.3-0.7,0.7-1,1c1.2,1.4,2.4,2.8,3.6,4.2
		c0.5-0.5,1.1-1.1,1.6-1.6c-1.4-1.2-2.8-2.4-5.2-2.5C200.1,71.2,200.4,70.9,200.7,70.5c-1.1-1.3-2.3-2.7-3.5-4.2
		c-0.5,0.5-1.1,1.1-1.6,1.6C196.9,69.1,198.3,70.3,200.7,70.5z M370.8,111.1c0-0.9,0-1.7,0-2.6c-3.4,0-6.9,0-10.3,0
		c0,0.9,0,1.7,0,2.6C363.9,111.1,367.3,111.1,370.8,111.1z M267.4,72.7c0,0.6,0,1.1,0,1.7c1.7,0,3.4,0,5.2,0c0-0.6,0-1.1,0-1.7
		C270.9,72.7,269.1,72.7,267.4,72.7z"/>
	<path class="st1" d="M60.7,339.8c-2.3-6.6-4.5-13.2-6.8-19.7c-1.5-4.4-3.2-8.8-5.4-14.9c13.7-3,26-0.9,38.1-1.6
		c1.3,1.7,2.6,3.4,3.9,5.2c2.1-1.7,4.3-3.4,6.4-5.2c4.9,0,9.8,0.3,14.7-0.1c8.1-0.5,14.1,1.8,16.3,10.4c-3.2,0-6.3,0-9.9,0
		c0,7.4,0,13.1,0,19.2c9.7,9.1,19.5,18.3,29.5,27.2c0.7,0.6,3-0.5,6.3-1.1c0-2.8,0-6,0-9.1c3.4,3.4,6.9,6.9,10.3,10.3
		c0,6.9,0,13.8,0,20.7c0,4.8,0,9.7,0,13.9c7.2,2.9,12.8,5.2,18.4,7.4c1.2-2.9,1.7-4.3,2.3-5.8c1.7-2.1,3.4-4.3,4.9-6.1
		c6.6,6.8,11.9,12.2,17.1,17.5c8.5-1.3,15.6-2.4,24.4-3.8c14.5,10.5,32.7,10,51.9,5.6c6.1-1.4,12.9-0.4,20-0.6
		c0.7-1.7,2-4.9,3.6-8.8c5.5,2.9,9,4.7,12.5,6.5c2.5,3.5,5,6.9,7.8,10.9c3.4-5.6,4.7-9.6-2.6-10.9c0-3.2,0-6.4,0-10.6
		c5.1,2.8,8.4,4.6,11.5,6.3c9.3-10.9,17.7-20.9,26.3-31c4.5-0.9,9.3-1.8,13.8-2.6c0-3.6,0-6.1,0-8.7c1.7-1.7,3.4-3.4,5.2-5.2
		s3.4-3.4,5.2-5.2c0-1.7,0-3.4,0-5.2c1.7-1.7,3.4-3.4,5.2-5.2c0-1.7,0-3.4,0-5.2c1.7-1.7,3.4-3.4,5.2-5.2c5.4-6.7,4.7-18,15.5-20.7
		c3.9-0.8,9.9,2.6,10.3-5.2c15.3,0,30.5,0,46.3,0c-9.9,26.3-19.4,50.9-36.2,71.3c-12.2,14.9-25.7,29-39.8,42.1
		c-8.8,8.2-19,16-30,20.5c-23.7,9.8-46.7,23-73.8,21.1c-14.8,9.1-31.4,6-46.8,4.7c-20.7-1.8-40.9-6.6-60.9-14.4
		c-30-11.6-55.3-28.2-76.5-52c-8.6-9.6-18.1-18.3-26-28.3c-4.3-6.2-8.6-12.4-13-18.5c0-1.7,0-3.4,0-5.2
		C64.1,343.2,62.4,341.5,60.7,339.8z M370.8,377.7c0,0.6,0,1.1,0,1.7c1.7,0,3.4,0,5.2,0c0-0.6,0-1.1,0-1.7
		C374.2,377.7,372.5,377.7,370.8,377.7z M362.2,391.5c0.6,0,1.1,0,1.7,0c0-1.7,0-3.4,0-5.2c-0.6,0-1.1,0-1.7,0
		C362.2,388,362.2,389.7,362.2,391.5z M239.8,417.3c-0.6,0-1.1,0-1.7,0c0,1.7,0,3.4,0,5.2c0.6,0,1.1,0,1.7,0
		C239.8,420.8,239.8,419,239.8,417.3z"/>
	<path class="st2" d="M324.3,350.1c-1.8,2.7-3.2,5.8-5.5,7.9c-6.2,5.4-16.4,4-20.6,13.6c-3.6,8.4-15.2,2.7-20.5,9.5
		c-7.5,3.6-13.6-4.7-21.9-2.1c-5.7,1.8-13.2-2.4-19.9-2.9c-8.4-0.6-16.9-0.1-25.4-0.1c-1.7-1.7-3.4-3.4-5.2-5.2s-3.4-3.4-5.2-5.2
		c-8.6-5.2-20.2-6.6-22.6-19.6c-0.5-2.5-5.5-4.2-8.4-6.3c1.4-0.6,2.9-1.1,4.3-1.7c-1.4-1.2-2.9-2.3-4.3-3.5
		c-0.6-1.4-1.1-2.9-1.7-4.3c-1.2,1.4-2.3,2.9-3.5,4.3c-1.7-1.7-3.4-3.4-5.2-5.2c0.4-5.2,0.8-10.3,1.2-15.5c3.9,2.2,6.5,3.6,9.2,5.1
		c1.7,0,3.4,0,5.2,0c1.7-1.7,3.4-3.4,5.2-5.2c3.4,0,6.9,0,10.3,0c7.5,14.5,15.1-1.2,22.8,0c1.8,1.6,3.6,3.3,5.5,5
		c1.8-1.6,3.6-3.2,5.3-4.7c1.8,1.6,3.6,3.1,5.3,4.7c2.6-2.6,5.1-5,7.5-7.6c0.4-0.5,0.1-1.7,0.1-2.5c10.3,0,20.7,0,31,0
		c-1.4,3.1-2.8,6.2-5.5,12.4c12.9-6.6,24.4-11,34.6-5.6c6.6,3.6,9.9,4.3,14.4-1.2c4.7,7.6,8.9-0.2,13.3-0.4
		c0.4,7.7,6.4,4.4,10.3,5.2c3.4,0,6.9,0,10.3,0c1.7,0,3.4,0,5.2,0c-5.2,6.9-10.3,13.8-15.5,20.7c-3.9,0.8-9.9-2.6-10.3,5.2
		c-1.4,0.6-2.9,1.1-4.3,1.7C321.4,347.8,322.8,349,324.3,350.1z"/>
	<path class="st3" d="M303.6,143.4c0.6-1.4,1.1-2.8,2.3-5.9c3,4.2,5.5,7.6,8,11.1c1.7,5.2,3.4,10.3,5.2,15.5c0,3.4,0,6.9,0,10.3
		c-1.7,1.7-3.4,3.4-5.2,5.2c-5.2,0-10.3,0-15.5,0c-7.5-0.6-14.6,0.3-20.7,5.2c-2.7-1.6-5.4-3.1-6.7-3.9c-17.5,10-37-12.5-52.8,3.8
		c-4.4-7.3-11.6-4.7-18-5.1c-5.2,0-10.3,0-15.5,0c-1.7,0-3.4,0-5.2,0c-4.7,0-9.4,0-15.5,0c0-4.2,0-7.3,0-10.3
		c1.7-1.7,3.4-3.4,5.2-5.2c1.7,0,3.4,0,5.2,0c0.6,1.4,1.1,2.9,1.7,4.3c1.2-1.4,2.3-2.9,3.5-4.3c0-1.7,0-3.4,0-5.2
		c1.4-0.6,2.9-1.1,4.3-1.7c-1.4-1.2-2.9-2.3-4.3-3.5c0-1.7,0-3.4,0-5.2c3.4,0,6.9,0,10.3,0c0,5.2,0,10.3,0,15.5c0,1.7,0,3.4,0,5.2
		c0.6,1.4,1.1,2.9,1.7,4.3c1.2-1.4,2.3-2.9,3.5-4.3c0-1.7,0-3.4,0-5.2c0-5.2,0-10.3,0-15.5c5.8-7.8,11.7-15.6,18.4-24.6
		c30.4-6.8,30.4-6.8,59.1,1.4c0,2.6,0,5.2,0,7.7c0,6.9,0,13.8,0,20.7c0,1.7,0,3.4,0,5.2s0,3.4,0,5.2c0.6,1.4,1.1,2.9,1.7,4.3
		c1.2-1.4,2.3-2.9,3.5-4.3c0-1.7,0-3.4,0-5.2s0-3.4,0-5.2c0-6.9,0-13.8,0-20.7c5.2-7.1,10.3-7.1,15.5,0c0,8.3,0,16.7,0,25.4
		c4,0,6.3,0,10.3,0C303.6,153.3,303.6,148.3,303.6,143.4z"/>
	<path class="st4" d="M319.1,407c-3.5-1.8-7-3.7-12.5-6.5c-1.6,3.8-2.9,7.1-3.6,8.8c-7.2,0.1-13.9-0.9-20,0.6
		c-19.1,4.4-37.4,4.9-51.9-5.6c-8.8,1.4-15.8,2.5-24.4,3.8c-5.2-5.3-10.5-10.7-17.1-17.5c-1.5,1.9-3.2,4-4.9,6.1
		c-4.7-4.8-9.4-9.7-15.1-15.5c-0.6,0-3.1,0-5.6,0c0-6.9,0-13.8,0-20.7c7.3,4.5,16,6.6,21.9,13.7c1.5,1.8,6,1.2,9.1,1.8
		c1.7,1.7,3.4,3.4,5.2,5.2c3.4,0,6.9,0,10.3,0c1.7,1.7,3.4,3.4,5.2,5.2c6.9,1.7,13.6,4.6,20.6,4.9c15.1,0.8,30.2,0.4,45.4,0
		c2.2-0.1,4.3-3.2,6.4-4.9c22.7-1.4,41.9-10.7,58.9-25.3c4.4-3.8,9-7.3,13.5-10.9c0,3.1,0,6.1,0,10.3c6.1,0,10.8,0,15.5,0
		c0,2.6,0,5.2,0,8.7c-4.5,0.9-9.3,1.8-13.8,2.6c-8.6,10.1-17.1,20.1-26.3,31c-3.1-1.7-6.4-3.5-11.5-6.3c0,4.2,0,7.4,0,10.6
		C322.5,407,320.8,407,319.1,407z"/>
	<path class="st3" d="M401.8,86.5c-1.7-1.7-3.4-3.4-5.2-5.2c-1.7-1.7-3.4-3.4-5.2-5.2s-3.4-3.4-5.2-5.2c-1.7-1.7-3.4-3.4-5.2-5.2
		c0-1.7,0-3.4,0-5.2c0-3.4,0-6.9,0-10.3c6.1-4.9,13.2-5.8,20.7-5.2c0,1.7,0,3.4,0,5.2c1.7,1.7,3.4,3.4,5.4,4.9
		c-0.1,0.1-0.4,0.4-0.8,0.7c1.2,1.4,2.4,2.8,3.6,4.2c0.5-0.5,1.1-1.1,1.6-1.6c-1.4-1.2-2.8-2.4-4.5-3.3c-0.2-1.5-0.2-3.2-0.2-4.9
		s0-3.4,0-5.2c2.2-1.7,4.4-4.9,6.7-4.9c17.9-0.4,35.8-0.2,55.4-0.2c0,29.9,0,58.9,0,87.9c-1.7,0-3.4,0-5.2,0
		c-0.4-7.7-6.4-4.4-10.3-5.2c0-1.7,0-3.4,0-5.2c-0.6-1.4-1.1-2.9-1.7-4.3c-1.2,1.4-2.3,2.9-3.5,4.3c-1.7,0-3.4,0-5.2,0
		c-0.8-3.9,2.6-9.9-5.2-10.3c1.7-3.4,3.4-6.9,5.2-10.3c7.2-1.2,6-5.2,2.7-10.9c-1.1,2.4-1.9,4-2.7,5.7c-3.4,1.7-6.9,3.4-10.3,5.2
		c0-3.4,0-6.9,0-10.3c0-1.7,0-3.4,0-5.2c0-1.7,0-3.4,0-5.2c-1.7-3.4-3.4-6.9-5.2-10.3c-0.8-3.9,2.6-9.9-5.2-10.3
		c-1.7,1.7-3.4,3.4-5.2,5.2c0,1.7,0,3.4,0,5.2c0,1.7,0,3.4,0,5.2c-1.7,0-3.4,0-5.2,0c-1.7,1.7-3.4,3.4-5.2,5.2
		c1.7,1.7,3.4,3.4,5.2,5.2c-1.7,1.7-3.4,3.4-5.2,5.2C405.2,86.5,403.5,86.5,401.8,86.5z M401.8,65.8c-0.6-1.4-1.1-2.9-1.7-4.3
		c-1.2,1.4-2.3,2.9-3.5,4.3c0.6,1.4,1.1,2.9,1.7,4.3C399.5,68.7,400.6,67.3,401.8,65.8z M458.7,86.5c6.1-0.1,6.7-5.2,4.4-7.9
		c-3.5-4.2-8.2-4.5-9.6,2.8C455.2,83.1,456.9,84.8,458.7,86.5z M441.4,76.2c-0.6,0-1.1,0-1.7,0c0,1.7,0,3.4,0,5.2c0.6,0,1.1,0,1.7,0
		C441.4,79.6,441.4,77.9,441.4,76.2z"/>
	<path class="st5" d="M184.7,102c5.8-7,11.7-14.1,17.2-20.7c12.2,8.8,23.6,6.3,35.1-0.1c3.3,1.8,6.7,3.8,11,6.2
		c3.5-5.5,6.9-10.6,11.6-17.9c1.6,4.3,2.5,6.7,4,10.9c5,0.5,11.4,1,18.3,1.7c0.5,2.5,1,4.8,2,9.8c2.7-1.9,4.7-3.3,7.1-4.9
		c10.7,3.2,22,6.6,33.3,9.9c0.8,8-2.2,13.5-10.3,15.5c-8.6-1.7-17.2-3.4-25.8-5.2c-8.6-1.7-17.2-4.4-25.8-5
		c-22.2-1.6-42.7,5.6-63,13.5c-2.9,1.1-6.3,1.2-9.4,1.8c-1.7,0-3.4,0-5.2,0c-7.1-1.3-6.3-5.1-3.2-9.7
		C182.7,105.9,183.6,103.9,184.7,102z"/>
	<path class="st6" d="M133,45.1c-1.7,0-3.4,0-5.2,0c-8.2,2-11.2,7.5-10.3,15.5c-3.4,2.6-7.4,4.7-10.2,7.9c-2.5,2.8-3.7,6.7-5.3,10.3
		c-1.9,4.2-3.5,8.6-5.2,12.9c-1.7,1.7-3.4,3.4-5.2,5.2c-1.7,0-3.4,0-5.2,0c-1.7-1.7-3.4-3.4-5.2-5.2c-1.7,0-3.4,0-5.2,0
		c0-1.7,0-3.4,0-5.2c1.4-0.6,2.9-1.1,4.3-1.7c-1.4-1.2-2.9-2.3-4.3-3.5c-1.7,0-3.4,0-5.2,0c-1.7,0-3.4,0-5.2,0c-1.7,0-3.4,0-5.2,0
		c-1.2-9.9-9.9-2.6-14.7-6.9c0-10.1,0-21,0-34.5c6.5,0,13.9-0.3,21.2,0.1c8.2,0.5,16.6,0.9,24.5,2.8c6,1.4,13.3-9.4,17.7,1.9
		c8-1.6,15.9-3.3,23.7-4.9C133,41.7,133,43.4,133,45.1z M96.8,65.8c-1.4,0.6-2.9,1.1-4.3,1.7c1.4,1.2,2.9,2.3,4.3,3.5
		c1.4-0.6,2.9-1.1,4.3-1.7C99.7,68.1,98.3,67,96.8,65.8z M81.3,55.5c0.6,1.4,1.1,2.9,1.7,4.3c1.2-1.4,2.3-2.9,3.5-4.3
		c-1.7-1.7-3.4-3.4-5.2-5.2c-1.4,0.6-2.9,1.1-4.3,1.7C78.5,53.2,79.9,54.3,81.3,55.5z M91.7,81.3c-1.7-1.7-3.4-3.4-5.2-5.2
		c-0.8-3.9,2.6-9.9-5.2-10.3c-1.7,1.7-3.4,3.4-5.2,5.2c0.4,7.7,6.4,4.4,10.3,5.2c0,1.7,0,3.4,0,5.2c0.6,1.4,1.1,2.9,1.7,4.3
		C89.4,84.2,90.5,82.8,91.7,81.3z M96.8,52c0,0.6,0,1.1,0,1.7c1.7,0,3.4,0,5.2,0c0-0.6,0-1.1,0-1.7C100.3,52,98.6,52,96.8,52z
		 M65.8,62.4c0,0.6,0,1.1,0,1.7c1.7,0,3.4,0,5.2,0c0-0.6,0-1.1,0-1.7C69.3,62.4,67.5,62.4,65.8,62.4z"/>
	<path class="st7" d="M298.4,282.9c-2.2,1.7-4.3,4.8-6.5,4.9c-10.9,0.5-21.9,0.2-34.4,0.2c0-11.9,0-23.4,0-36.2c-15,0-28.4,0-41.7,0
		c0-12.8,0-25.7,0-40.7c13-1.5,26.2-0.2,39.6-0.7c5.1,13.8-3.2,29.2,6.9,41.4c0,9.9,0,19.9,0,31
		C275.2,282.9,286.8,282.9,298.4,282.9z"/>
	<path class="st7" d="M45.1,251.9c9-12,3.6-25.9,5.6-40.1c12.8,0,26,0,40.9,0c0,13.1,0,26.6,0,40.1c-13.4,0-26.8,0-40.8,0
		c0,12.1,0,22.9,0,36.2c-11.3,0-22,0.2-32.7-0.2c-1.4-0.1-2.7-3.2-4-4.9c9.9,0,19.9,0,31,0C45.1,271.8,45.1,261.8,45.1,251.9z"/>
	<path class="st8" d="M313.9,112.3c8.2-2,11.2-7.5,10.3-15.5c6.1,1.8,16.4,2.2,17.6,5.7c4.4,13.1,14.4,16.4,31.1,16.9
		c-1.7,0.7,2.2-0.9,6.6-2.6c-1.7,9.4-3,16.9-4.1,23.1c14.7,8.7,19.7,22.3,26.4,34.5c-3.4,3.4-6.9,6.9-10.3,10.3
		c-6.9-9.4-13.3-19.2-20.7-28.2c-5.4-6.6-11.6-12.5-18-18.1c-6.1-5.3-15.6-8.4-18.9-14.8C329.1,114.1,316.4,122.8,313.9,112.3z"/>
	<path class="st9" d="M344.9,282.9c-1.7-1.4-4.9-2.6-4.9-4.1c-0.5-8.4-0.2-16.9-0.2-26.9c-14.4,0-27.9,0-41.4,0
		c0-11.1,0-22.2,0-33.9c2.2-1.9,4.8-4.1,8.3-7.1c9.6,0,20.4,0,30.9,0c2.2,2.2,4,4,7.4,7.4c0,10.1,0,21.9,0,33.6
		C344.9,262.2,344.9,272.6,344.9,282.9z"/>
	<path class="st10" d="M381.1,251.9c9-12,3.7-25.8,5.6-40.1c11,0,22.4,0,34.5,0c1.3,1.3,3.1,3.1,6.5,6.5c0,10.1,0,21.9,0,33.6
		c-12.8,0-25.7,0-40.5,0c-0.3,8-0.2,16.2-1.1,24.4c-0.3,2.4-3.2,4.4-4.9,6.6C381.1,272.6,381.1,262.2,381.1,251.9z"/>
	<path class="st10" d="M463.8,251.9c9-12,3.7-25.8,5.6-40.1c11,0,22.5,0,34.9,0c0,10.4,0,21.3,0,33.3c-1.4,1.3-3.9,3.6-7.5,7
		c-7.9,0-17.1,0-27,0c0,11.6,0,22.5,0,35.2c-13.9,1.3-27.1,1.3-40.3-0.2c-0.7-0.1-1.2-2.7-1.8-4.2c11.6,0,23.3,0,36.2,0
		C463.8,271.8,463.8,261.8,463.8,251.9z"/>
	<path class="st11" d="M412.1,427.6c3.1-11.7,15.2-10.3,21.8-16.9c7.8,10.7,4.5,24.4,14.4,32.4c3.4-5.2,6.9-10.3,10.3-15.5
		c1.7-1.3,3.4-2.6,5.2-3.9c-1.7-2.1-3.4-4.3-5.2-6.4c0-1.7,0-3.4,0-5.2c3.4,0,6.9,0,10.3,0c0,15.5,0,31,0,46.5
		c-17.2,0-34.5,0-51.7,0c-1.5-2.7-3-5.3-4.6-8.1C419.1,443.2,421.7,435.4,412.1,427.6z M431.1,422.5c-0.6,0-1.1,0-1.7,0
		c0,1.7,0,3.4,0,5.2c0.6,0,1.1,0,1.7,0C431.1,425.9,431.1,424.2,431.1,422.5z M427.6,434.5c0,0.6,0,1.1,0,1.7c1.7,0,3.4,0,5.2,0
		c0-0.6,0-1.1,0-1.7C431.1,434.5,429.4,434.5,427.6,434.5z"/>
	<path class="st12" d="M174.4,251.9c-13.8,0-27.6,0-41.4,0c0-12.9,0-25.7,0-40.5c13.1-2,26.4-0.1,41.4-1.3
		C174.4,224.9,174.4,238.4,174.4,251.9z"/>
	<path class="st6" d="M91.7,251.9c13.8,0,27.6,0,41.4,0c0,11.2,0,22.3,0,35.5c-13.1,1.4-26.4,0.3-41.4,0.8
		C91.7,275.5,91.7,263.7,91.7,251.9z"/>
	<path class="st6" d="M215.7,251.9c0,11.2,0,22.3,0,35.5c-13.1,1.4-26.4,0.3-41.4,0.8c0-12.7,0-24.5,0-36.3
		C188.2,251.9,201.9,251.9,215.7,251.9z"/>
	<path class="st12" d="M71,448.3c0-1.7,0-3.4,0-5.2c8.2-2,11.2-7.5,10.3-15.5c0-1.7,0-3.4,0-5.2s0-3.4,0-5.2c1.7,0,3.4,0,5.2,0
		c0,3.4,0,6.9,0,10.3c0,1.7,0,3.4,0,5.2c0,1.7,0,3.4,0,5.2c1.3,1.7,2.6,3.4,3.9,5.2c2.1-1.7,4.3-3.4,6.4-5.2c1.7,0,3.4,0,5.2,0
		c5.2,10-7,8.8-12.3,15.5c6.2,0,9.3,0,12.3,0c-2.1,1.7-4.2,4.9-6.4,4.9c-15.1,0.4-30.2,0.2-45.3,0.2c0-22.4,0-44.8,0-67.2
		c1.7,0,3.4,0,5.2,0c0.8,3.9-2.6,9.9,5.2,10.3c0,1.7,0,3.4,0,5.2c-1.7,1.7-3.4,3.4-5.2,5.2c1.7,1.7,3.4,3.4,5.2,5.2
		c0,11.8,0,23.5,0,39.1C66,452.2,68.5,450.3,71,448.3z"/>
	<path class="st13" d="M381.1,251.9c0,10.3,0,20.7,0,31c-12.1,0-24.1,0-36.2,0c0-10.3,0-20.7,0-31
		C357,251.9,369.1,251.9,381.1,251.9z"/>
	<path class="st14" d="M298.4,282.9c-11.6,0-23.3,0-36.2,0c0-11.1,0-21.1,0-31c12.1,0,24.1,0,36.2,0
		C298.4,262.2,298.4,272.6,298.4,282.9z"/>
	<path class="st14" d="M463.8,251.9c0,9.9,0,19.9,0,31c-12.9,0-24.6,0-36.2,0c0-10.3,0-20.7,0-31
		C439.7,251.9,451.8,251.9,463.8,251.9z"/>
	<path class="st14" d="M45.1,251.9c0,9.9,0,19.9,0,31c-11.2,0-21.1,0-31,0c0-9.9,0-19.9,0-31C25.3,251.9,35.2,251.9,45.1,251.9z"/>
	<path class="st15" d="M288.1,386.3c-2.1,1.7-4.2,4.9-6.4,4.9c-15.1,0.4-30.3,0.8-45.4,0c-6.9-0.3-13.7-3.2-20.6-4.9
		c-1.7-1.7-3.4-3.4-5.2-5.2c0-1.7,0-3.4,0-5.2c8.5,0,17-0.5,25.4,0.1c6.7,0.5,14.2,4.7,19.9,2.9c8.3-2.6,14.4,5.7,21.9,2.1
		C278.2,388.9,284.2,385.5,288.1,386.3z"/>
	<path class="st16" d="M65.8,81.3c1.7,0,3.4,0,5.2,0c0,1.7,0,3.4,0,5.2c1.7,1.7,3.4,3.4,5.2,5.2c0,1.7,0,3.4,0,5.2
		c1.7,1.7,3.4,3.4,5.2,5.2c1.7,0,3.4,0,5.2,0c0,3.4,0,6.9,0,10.3c-1.7,1.7-3.4,3.4-5.2,5.2c-1.7,1.7-3.4,3.4-5.2,5.2
		c-1.7,0-3.4,0-5.2,0c-1.7,0-3.4,0-5.2,0c-1.7-1.7-3.4-3.4-5.2-5.2c0-1.7,0-3.4,0-5.2c-1.7-1.7-3.4-3.4-5.2-5.2
		c-0.8-3.9,2.6-9.9-5.2-10.3c-2-2.5-3.9-4.9-8.3-10.3c7.1,0,10.3,0,13.4,0c1.7,0,3.4,0,5.2,0C62.4,84.8,64.1,83.1,65.8,81.3z"/>
	<path class="st17" d="M153.7,350.1c0,3.2,0,6.3,0,9.1c-3.3,0.6-5.6,1.7-6.3,1.1c-10-9-19.7-18.2-29.5-27.2c0-6.1,0-11.8,0-19.2
		c3.6,0,6.7,0,9.9,0C136.5,326,145.1,338.1,153.7,350.1z"/>
	<path class="st18" d="M391.5,334.6c0,1.7,0,3.4,0,5.2c-1.7,1.7-3.4,3.4-5.2,5.2c0,1.7,0,3.4,0,5.2c-1.7,0-3.4,0-5.2,0
		c-5.2,0-10.3,0-15.5,0c0-1.7,0-3.4,0-5.2c1.7-1.7,3.4-3.4,5.2-5.2c1.7-1.7,3.4-3.4,5.2-5.2s3.4-3.4,5.2-5.2c0-1.7,0-3.4,0-5.2
		c1.7-1.7,3.4-3.4,5.2-5.2c1.5-5,3-9.9,4.7-15.5c8.3,0,14.7,0,21.1,0c0,1.7,0,3.4,0,5.2c-10.8,2.6-10.1,14-15.5,20.7
		C394.9,331.2,393.2,332.9,391.5,334.6z"/>
	<path class="st19" d="M50.3,391.5c0,22.4,0,44.8,0,67.2c-1.7-1.4-4.9-2.7-5-4.1c-0.3-33.5-0.3-66.9,0-100.4c0-1.4,3.2-2.7,5-4.1
		c0.3,6.7,0.6,13.5,1.1,24.9c4.4-11.8,6.8-18.4,9.2-24.9c1.7,0,3.4,0,5.2,0c-1.7,8.6-3.4,17.2-5.2,25.8c-3.1,0-6.1,0-10.3,0
		C50.3,382.1,50.3,386.8,50.3,391.5z"/>
	<path class="st20" d="M469,458.7c0-15.5,0-31,0-46.5c0-1.7,0-3.4,0-5.2c-0.1-8.9,1.6-18.2-5.2-25.8c7.7-0.4,4.4-6.4,5.2-10.3
		c0-3.4,0-6.9,0-10.3c-1.7-1.7-3.4-3.4-5.2-5.2c2.4-4.9,4.7-9.9,8.4-17.6c0.9,5.9,1.8,9.4,1.8,12.8c0.1,33,0.1,66.1,0,99.1
		C474.1,453.3,475.9,458.6,469,458.7z"/>
	<path class="st21" d="M200.2,179.5c6.4,0.4,13.6-2.2,18,5.1c15.8-16.3,35.3,6.2,52.8-3.8c1.3,0.7,4,2.3,6.7,3.9c0,1.7,0,3.4,0,5.2
		c-22.4,0-44.8,0-67.2,0c-1.7-1.7-3.4-3.4-5.2-5.2C203.7,183,201.9,181.3,200.2,179.5z"/>
	<path class="st22" d="M324.3,148.5c3.6,1,9,0.9,10.5,3.3c4.3,6.6,9.1,12.6,15.3,17.3c-1.7,3.4-3.4,6.9-5.2,10.3c-1.7,0-3.4,0-5.2,0
		s-3.4,0-5.2,0c-2.5,1.4-5.1,2.7-8.3,4.5c-0.5-1.1-1.3-2.8-2-4.5c0-5.2,0-10.3,0-15.5C324.3,158.9,324.3,153.7,324.3,148.5z"/>
	<path class="st23" d="M324.3,179.5c0.8,1.7,1.5,3.4,2,4.5c3.2-1.8,5.8-3.1,8.3-4.5c1.7,1.7,3.4,3.4,5.2,5.2
		c1.7-1.7,3.4-3.4,5.2-5.2c1.7-3.4,3.4-6.9,5.2-10.3c2.6,3.4,4.7,7.6,8,10.1c3.6,2.8,8.4,4.1,14,6.8c-8.5,6.4-14.3,3.9-19.8-1
		c-5.5,8-13.7,4.1-20.8,4.6c-7.5,0.6-15.2,0.1-22.7,0.1c1.7-3.4,3.4-6.9,5.2-10.3c1.7,0,3.4,0,5.2,0
		C320.8,179.5,322.5,179.5,324.3,179.5z"/>
	<path class="st9" d="M200.2,179.5c1.7,1.7,3.4,3.4,5.2,5.2c0,1.7,0,3.4,0,5.2c-13.8,0-27.6,0-41.4,0c-0.6-1.4-1.1-2.9-1.7-4.3
		c-1.2,1.4-2.3,2.9-3.5,4.3c-1.7,0-3.4,0-5.2,0c-1.7-1.7-3.4-3.4-5.2-5.2c1.7-1.7,3.4-3.4,5.2-5.2c1.7-1.7,3.4-3.4,5.2-5.2
		c1.7-1.7,3.4-3.4,5.2-5.2c0,3.1,0,6.1,0,10.3c6.1,0,10.8,0,15.5,0c0.6,1.4,1.1,2.9,1.7,4.3c1.2-1.4,2.3-2.9,3.5-4.3
		C189.9,179.5,195,179.5,200.2,179.5z"/>
	<path class="st24" d="M138.2,153.7c-1.9-1.1-3.8-2.1-7.3-4.1c10-9.7,19-18.3,28-26.9c5.2,0,10.3,0,15.5,0c0,1.7,0,3.4,0,5.2
		c-1.7,1.7-3.4,3.4-5.2,5.2c-1.7,0-3.4,0-5.2,0c-1.7,1.7-3.4,3.4-5.2,5.2c-1.7,1.7-3.4,3.4-5.2,5.2c-1.7,1.7-3.4,3.4-5.2,5.2
		c-1.7,1.7-3.4,3.4-5.2,5.2C141.6,153.7,139.9,153.7,138.2,153.7z"/>
	<path class="st25" d="M324.3,313.9c-4.4,0.2-8.6,8-13.3,0.4c-4.4,5.6-7.7,4.8-14.4,1.2c-10.2-5.5-21.8-1-34.6,5.6
		c2.7-6.1,4.1-9.3,5.5-12.4c6.5-0.3,13.6,1.9,18.3-4.9c3.9,6.4,10.2,4.9,16,4.9c7.2,0,14.8,1.6,20.7-4.4c0.6,0.6,1.4,1.1,1.7,1.9
		c0.3,0.7,0.1,1.7,0.1,2.5C324.3,310.5,324.3,312.2,324.3,313.9z"/>
	<path class="st26" d="M391.5,184.7c3.4-3.4,6.9-6.9,10.3-10.3c10.8,2.6,10.1,14,15.5,20.7c-8.1,0-16.2,0-25.8,0
		C391.5,190.9,391.5,187.8,391.5,184.7z"/>
	<path class="st27" d="M112.3,195c4.7-13.3,6.6-28.2,20.7-36.2c0,1.7,0,3.4,0,5.2s0,3.4,0,5.2c0,1.7,0,3.4,0,5.2
		c-1.7,1.7-3.4,3.4-5.2,5.2C126.8,191.1,123.9,194,112.3,195z"/>
	<path class="st28" d="M236.4,308.8c0,0.9,0.4,2.1-0.1,2.5c-2.3,2.5-4.8,4.9-7.5,7.6c-1.8-1.5-3.5-3.1-5.3-4.7
		c-1.7,1.5-3.6,3.2-5.3,4.7c-1.9-1.7-3.8-3.4-5.5-5c-7.8-1.2-15.3,14.5-22.8,0c3.9-0.8,9.9,2.6,10.3-5.2
		C212.3,308.8,224.3,308.8,236.4,308.8z"/>
	<path class="st29" d="M169.2,319.1c-2.6-1.5-5.3-2.9-9.2-5.1c-0.4,5.2-0.8,10.3-1.2,15.5c-8.9-7.9-8.9-7.9-9.3-20.7c10,0,20,0,30,0
		c0,1.7,0,3.4,0,5.2c-1.7,0-3.4,0-5.2,0C172.6,315.7,170.9,317.4,169.2,319.1z"/>
	<path class="st30" d="M376,45.1c-6.8-2.3-13.7-4.6-20.5-6.9c0.2-1.1,0.4-2.3,0.6-3.4c14,0,27.9-0.1,41.9,0.2c1.3,0,2.6,3.2,3.9,4.9
		c-6.6,0-13.2-0.4-19.6,0.2C379.9,40.4,378,43.4,376,45.1z"/>
	<path class="st16" d="M55.5,148.5c-1.7-1.7-3.4-3.4-5.2-5.2c0-10-0.3-19.9,0.2-29.9c0.1-2.2,3.2-4.2,4.9-6.3c0,1.7,0,3.4,0,5.2
		c2,5.1-4.8,13.1,5.2,15.5c1.7,1.7,3.4,3.4,5.2,5.2c-1.7,1.7-3.4,3.4-5.2,5.2c-1.7,1.7-3.4,3.4-5.2,5.2
		C55.5,145.1,55.5,146.8,55.5,148.5z"/>
	<path class="st31" d="M412.1,427.6c9.6,7.7,7,15.5,0.6,22.9c1.6,2.8,3.1,5.5,4.6,8.1c-2.6,0-5.1,0-9.2,0
		c-1.9-9.6-1.5-19.4-0.2-29.2C408,428.7,410.7,428.2,412.1,427.6z"/>
	<path class="st32" d="M174.4,122.7c-5.2,0-10.3,0-15.5,0c3.9-3.1,8.3-5.7,11.6-9.3c2.9-3.2,4.6-7.6,6.9-11.4c2.5,0,5,0,7.4,0
		c-1.1,1.9-2,3.9-3.2,5.8c-3.1,4.7-3.9,8.5,3.2,9.7c0,1.7,0,3.4,0,5.2c-1.7,0-3.4,0-5.2,0S176.1,122.7,174.4,122.7z"/>
	<path class="st33" d="M55.5,107.2c-1.7,2.1-4.8,4.1-4.9,6.3c-0.5,9.9-0.2,19.9-0.2,29.9c-0.8,0-2.3,0.2-2.4,0
		c-4.1-15.7-5.8-31.4,2.4-46.5C58.1,97.3,54.7,103.3,55.5,107.2z"/>
	<path class="st34" d="M71,448.3c-2.5,2-5,3.9-10.3,8.1c0-15.6,0-27.4,0-39.1c1.7,0,3.4,0,5.2,0c0,8.3-0.4,16.5,0.2,24.7
		C66.2,444.2,69.3,446.2,71,448.3z"/>
	<path class="st35" d="M303.6,143.4c0,5,0,9.9,0,15c-4,0-6.4,0-10.3,0c0-8.7,0-17,0-25.4c1.7,1.3,3.6,2.4,5.1,4
		C300.3,138.9,301.9,141.2,303.6,143.4z"/>
	<path class="st10" d="M344.9,282.9c12.1,0,24.1,0,36.2,0C370.3,290.1,355.8,290.1,344.9,282.9z"/>
	<path class="st36" d="M60.7,350.1c-2.4,6.6-4.9,13.2-9.2,24.9c-0.5-11.5-0.8-18.2-1.1-24.9c7.7-0.4,4.4-6.4,5.2-10.3
		c1.7,0,3.4,0,5.2,0c0,1.7,0,3.4,0,5.2C60.7,346.7,60.7,348.4,60.7,350.1z"/>
	<path class="st34" d="M102,453.5c-3.1,0-6.1,0-12.3,0c5.3-6.7,17.5-5.5,12.3-15.5c0-1.7,0-3.4,0-5.2c0-1.7,0-3.4,0-5.2
		C109.4,436.1,109.4,445.1,102,453.5z"/>
	<path class="st37" d="M277.7,189.9c0-1.7,0-3.4,0-5.2c6.1-4.9,13.2-5.8,20.7-5.2c0,3.4,0,6.9,0,10.3
		C291.5,189.9,284.6,189.9,277.7,189.9z"/>
	<path class="st3" d="M463.8,381.1c6.8,7.6,5,16.9,5.2,25.8c-1.7-1.7-3.4-3.4-5.2-5.2c0-3,0-6,0-10.3c-4.3,0-7.3,0-10.3,0
		c1.7-3.4,3.4-6.9,5.2-10.3C460.4,381.1,462.1,381.1,463.8,381.1z"/>
	<path class="st38" d="M329.4,308.8c1.3-1.7,2.4-4.9,3.8-4.9c8.2-0.5,16.5-0.2,24.8-0.2c3.5,4.7,5,8.7-2.7,10.3
		c-1.7-1.7-3.4-3.4-5.2-5.2c-3.4,0-6.9,0-10.3,0S332.9,308.8,329.4,308.8z"/>
	<path class="st33" d="M376,45.1c2.1-1.7,4-4.7,6.2-4.9c6.5-0.7,13.1-0.2,19.6-0.2c0,1.7,0,3.4,0,5.2c-7.5-0.6-14.6,0.3-20.7,5.2
		C379.4,48.6,377.7,46.9,376,45.1z"/>
	<path class="st39" d="M469,138.2c0,1.7,0,3.4,0,5.2c-1.7,0-3.4,0-5.2,0s-3.4,0-5.2,0s-3.4,0-5.2,0c0-1.7,0-3.4,0-5.2
		c3.4-3.4,6.9-6.9,10.3-10.3c0,1.7,0,3.4,0,5.2C465.5,134.7,467.3,136.5,469,138.2z"/>
	<path class="st40" d="M55.5,148.5c0-1.7,0-3.4,0-5.2c1.7-1.7,3.4-3.4,5.2-5.2c1.7-1.7,3.4-3.4,5.2-5.2c1.7,0,3.4,0,5.2,0
		c0.4,8.8-3.6,15.4-10.3,20.7C58.9,152,57.2,150.2,55.5,148.5z"/>
	<path class="st41" d="M458.7,427.6c-3.4,5.2-6.9,10.3-10.3,15.5c0-8.6,0-17.2,0-25.8c1.7,0,3.4,0,5.2,0c0,1.7,0,3.4,0,5.2
		C455.2,424.2,456.9,425.9,458.7,427.6z"/>
	<path class="st19" d="M55.5,339.8c-0.8,3.9,2.6,9.9-5.2,10.3c-1.8-6.4-3.6-12.8-5.3-19.2c1-0.5,2-1,3-1.4
		C50.5,332.9,53,336.3,55.5,339.8z"/>
	<path class="st22" d="M298.4,189.9c0-3.4,0-6.9,0-10.3c5.2,0,10.3,0,15.5,0c-1.7,3.4-3.4,6.9-5.2,10.3
		C305.3,189.9,301.9,189.9,298.4,189.9z"/>
	<path class="st42" d="M50.3,391.5c0-4.7,0-9.4,0-15.5c4.2,0,7.3,0,10.3,0c0,1.7,0,3.4,0,5.2c0,1.7,0,3.4,0,5.2
		c-1.7,1.7-3.4,3.4-5.2,5.2C53.8,391.5,52,391.5,50.3,391.5z"/>
	<path class="st43" d="M386.3,443.2c0,1.7,0,3.4,0,5.2c0,1.7,0,3.4,0,5.2c-1.7,1.7-3.4,3.4-5.2,5.2c-9.7-2-4.2-8.8-4.4-15.5
		C380,443.2,383.1,443.2,386.3,443.2z"/>
	<path class="st44" d="M179.5,313.9c0-1.7,0-3.4,0-5.2c6.9,0,13.8,0,20.7,0c-0.4,7.7-6.4,4.4-10.3,5.2
		C186.4,313.9,183,313.9,179.5,313.9z"/>
	<path class="st45" d="M117.5,60.7c-0.8-8,2.2-13.5,10.3-15.5C128.7,53.2,125.7,58.6,117.5,60.7z"/>
	<path class="st46" d="M339.8,308.8c3.4,0,6.9,0,10.3,0c1.7,1.7,3.4,3.4,5.2,5.2c-1.7,1.7-3.4,3.4-5.2,5.2c-1.7,0-3.4,0-5.2,0
		C343.2,315.7,341.5,312.2,339.8,308.8z"/>
	<path class="st47" d="M453.5,417.3c-1.7,0-3.4,0-5.2,0c2-5.1-4.8-13.1,5.2-15.5c0,1.7,0,3.4,0,5.2c1.7,1.7,3.4,3.4,5.2,5.2
		c0,1.7,0,3.4,0,5.2C456.9,417.3,455.2,417.3,453.5,417.3z"/>
	<path class="st48" d="M86.5,427.6c0-3.4,0-6.9,0-10.3c3.4,3.4,6.9,6.9,10.3,10.3c0,1.7,0,3.4,0,5.2c-1.7,0-3.4,0-5.2,0
		C89.9,431.1,88.2,429.4,86.5,427.6z"/>
	<path class="st34" d="M81.3,427.6c0.8,8-2.2,13.5-10.3,15.5C70.2,435.1,73.2,429.7,81.3,427.6z"/>
	<path class="st49" d="M122.7,453.5c0-3.1,0-6.3,0-12.1c6.7,5.2,11.1,8.7,15.5,12.1c-1.7,0-3.4,0-5.2,0c-1.7,0-3.4,0-5.2,0
		S124.4,453.5,122.7,453.5z"/>
	<path class="st50" d="M324.3,148.5c0,5.2,0,10.3,0,15.5c-1.7,0-3.4,0-5.2,0c-1.7-5.2-3.4-10.3-5.2-15.5
		C317.4,148.5,320.8,148.5,324.3,148.5z"/>
	<path class="st51" d="M272.6,153.7c0-6.9,0-13.8,0-20.7c1.7,0,3.4,0,5.2,0c0,6.9,0,13.8,0,20.7C276,153.7,274.3,153.7,272.6,153.7z
		"/>
	<path class="st52" d="M195,148.5c0,5.2,0,10.3,0,15.5c-1.7,0-3.4,0-5.2,0c0-5.2,0-10.3,0-15.5C191.6,148.5,193.3,148.5,195,148.5z"
		/>
	<path class="st44" d="M179.5,158.9c0,1.7,0,3.4,0,5.2c-1.7,0-3.4,0-5.2,0c-1.7,0-3.4,0-5.2,0s-3.4,0-5.2,0c1.7-1.7,3.4-3.4,5.2-5.2
		c1.7,0,3.4,0,5.2,0C176.1,158.9,177.8,158.9,179.5,158.9z"/>
	<path class="st53" d="M376,65.8c-1.7-1.7-3.4-3.4-5.2-5.2c0.8-3.9-2.6-9.9,5.2-10.3c0,3.4,0,6.9,0,10.3C376,62.4,376,64.1,376,65.8
		z"/>
	<path class="st54" d="M469,370.8c-0.8,3.9,2.6,9.9-5.2,10.3c-1.7-1.7-3.4-3.4-5.2-5.2c1.7-1.7,3.4-3.4,5.2-5.2
		C465.5,370.8,467.3,370.8,469,370.8z"/>
	<path class="st55" d="M453.5,391.5c3,0,6,0,10.3,0c0,4.3,0,7.3,0,10.3c-1.7,0-3.4,0-5.2,0c-1.7-1.7-3.4-3.4-5.2-5.2
		C453.5,394.9,453.5,393.2,453.5,391.5z"/>
	<path class="st56" d="M65.8,417.3c-1.7,0-3.4,0-5.2,0c-1.7-1.7-3.4-3.4-5.2-5.2c1.7-1.7,3.4-3.4,5.2-5.2
		C68.4,407.4,65,413.4,65.8,417.3z"/>
	<path class="st57" d="M143.4,453.5c1.4-7.3,6.1-7,9.6-2.8c2.3,2.7,1.6,7.8-4.4,7.9C146.8,456.9,145.1,455.2,143.4,453.5z"/>
	<path class="st9" d="M189.9,148.5c-3.4,0-6.9,0-10.3,0c2.1-1.7,4.3-3.4,6.4-5.2C187.3,145.1,188.6,146.8,189.9,148.5z"/>
	<path class="st58" d="M149.3,32.6c-1.8,6.3-2.7,9.4-3.6,12.5c-0.8-2.4-1.9-4.8-2.2-7.2C143.4,37.2,145.4,36.1,149.3,32.6z"/>
	<path class="st59" d="M324.3,344.9c0.4-7.7,6.4-4.4,10.3-5.2c-1.7,1.7-3.4,3.4-5.2,5.2C327.7,344.9,326,344.9,324.3,344.9z"/>
	<path class="st60" d="M469,370.8c-1.7,0-3.4,0-5.2,0c0-3.4,0-6.9,0-10.3c1.7,0,3.4,0,5.2,0C469,363.9,469,367.3,469,370.8z"/>
	<path class="st61" d="M133,45.1c0-1.7,0-3.4,0-5.2c1.7,1.7,3.4,3.4,5.2,5.2c0,1.7,0,3.4,0,5.2C136.5,48.6,134.7,46.9,133,45.1z"/>
	<path class="st36" d="M60.7,386.3c0-1.7,0-3.4,0-5.2c1.7,2.1,3.4,4.3,5.2,6.4c-1.7,1.3-3.4,2.6-5.2,3.9
		C60.7,389.7,60.7,388,60.7,386.3z"/>
	<path class="st59" d="M391.5,453.5c3.1,0,6.3,0,9.4,0c0.1,1.1,0.2,2.3,0.4,3.4c-3.3,0.6-6.5,1.2-9.8,1.8
		C391.5,456.9,391.5,455.2,391.5,453.5z"/>
	<path class="st62" d="M179.5,158.9c-1.7,0-3.4,0-5.2,0c0-1.7,0-3.4,0-5.2c1.7-1.7,3.4-3.4,5.2-5.2c0,1.7,0,3.4,0,5.2
		C179.5,155.4,179.5,157.1,179.5,158.9z"/>
	<path class="st33" d="M376,60.7c0-3.4,0-6.9,0-10.3c1.7,0,3.4,0,5.2,0c0,3.4,0,6.9,0,10.3C379.4,60.7,377.7,60.7,376,60.7z"/>
	<path class="st63" d="M133,164c0-1.7,0-3.4,0-5.2c1.7,0,3.4,0,5.2,0s3.4,0,5.2,0c-1.7,1.7-3.4,3.4-5.2,5.2
		C136.5,164,134.7,164,133,164z"/>
	<path class="st64" d="M463.8,143.4c1.7,0,3.4,0,5.2,0c0,3.1,0,6.3,0,15.5c-3.6-7.1-4.4-8.7-5.2-10.3
		C463.8,146.8,463.8,145.1,463.8,143.4z"/>
	<path class="st65" d="M96.8,303.6c-2.1,1.7-4.3,3.4-6.4,5.2c-1.3-1.7-2.6-3.4-3.9-5.2C89.9,303.6,93.4,303.6,96.8,303.6z"/>
	<path class="st42" d="M60.7,401.8c-7.7-0.4-4.4-6.4-5.2-10.3c1.7,0,3.4,0,5.2,0C60.7,394.9,60.7,398.4,60.7,401.8z"/>
	<path class="st66" d="M412.1,308.8c0-1.7,0-3.4,0-5.2c3.4,0,6.9,0,10.3,0C422,311.3,416.1,308,412.1,308.8z"/>
	<path class="st67" d="M365.6,453.5c0.8-1.7,1.5-3.3,2.7-5.7c3.3,5.7,4.5,9.6-2.7,10.9C365.6,456.9,365.6,455.2,365.6,453.5z"/>
	<path class="st68" d="M148.5,189.9c-1.4-1.2-2.9-2.3-4.3-3.5c1.4-0.6,2.9-1.1,4.3-1.7C148.5,186.4,148.5,188.2,148.5,189.9z"/>
	<path class="st69" d="M148.5,189.9c0-1.7,0-3.4,0-5.2c1.7,1.7,3.4,3.4,5.2,5.2C152,189.9,150.2,189.9,148.5,189.9z"/>
	<path class="st13" d="M158.9,189.9c1.2-1.4,2.3-2.9,3.5-4.3c0.6,1.4,1.1,2.9,1.7,4.3C162.3,189.9,160.6,189.9,158.9,189.9z"/>
	<path class="st3" d="M205.4,189.9c0-1.7,0-3.4,0-5.2c1.7,1.7,3.4,3.4,5.2,5.2C208.8,189.9,207.1,189.9,205.4,189.9z"/>
	<path class="st9" d="M164,164c1.7,0,3.4,0,5.2,0c-1.7,1.7-3.4,3.4-5.2,5.2C164,167.5,164,165.8,164,164z"/>
	<path class="st0" d="M133,164c1.7,0,3.4,0,5.2,0c-1.7,1.7-3.4,3.4-5.2,5.2C133,167.5,133,165.8,133,164z"/>
	<path class="st70" d="M174.4,153.7c0,1.7,0,3.4,0,5.2c-1.7,0-3.4,0-5.2,0C170.9,157.1,172.6,155.4,174.4,153.7z"/>
	<path class="st71" d="M143.4,158.9c-1.7,0-3.4,0-5.2,0c0-1.7,0-3.4,0-5.2c1.7,0,3.4,0,5.2,0C143.4,155.4,143.4,157.1,143.4,158.9z"
		/>
	<path class="st72" d="M463.8,143.4c0,1.7,0,3.4,0,5.2c-1.7,0-3.4,0-5.2,0c0-1.7,0-3.4,0-5.2C460.4,143.4,462.1,143.4,463.8,143.4z"
		/>
	<path class="st0" d="M148.5,148.5c1.7-1.7,3.4-3.4,5.2-5.2C152,145.1,150.2,146.8,148.5,148.5z"/>
	<path class="st0" d="M127.9,179.5c1.7-1.7,3.4-3.4,5.2-5.2C131.3,176.1,129.6,177.8,127.9,179.5z"/>
	<path class="st0" d="M153.7,143.4c1.7-1.7,3.4-3.4,5.2-5.2C157.1,139.9,155.4,141.6,153.7,143.4z"/>
	<path class="st2" d="M324.3,313.9c0-1.7,0-3.4,0-5.2c1.7,0,3.4,0,5.2,0c0,1.7,0,3.4,0,5.2C327.7,313.9,326,313.9,324.3,313.9z"/>
	<path class="st10" d="M158.9,174.4c-1.7,1.7-3.4,3.4-5.2,5.2C155.4,177.8,157.1,176.1,158.9,174.4z"/>
	<path class="st73" d="M469,138.2c-1.7-1.7-3.4-3.4-5.2-5.2c1.7,0,3.4,0,5.2,0C469,134.7,469,136.5,469,138.2z"/>
	<path class="st74" d="M138.2,50.3c0-1.7,0-3.4,0-5.2c1.7,0,3.4,0,5.2,0C141.6,46.9,139.9,48.6,138.2,50.3z"/>
	<path class="st75" d="M470.7,319.1c0-1.7,0-3.4,0-5.2c0.6,0,1.1,0,1.7,0c0,1.7,0,3.4,0,5.2C471.9,319.1,471.3,319.1,470.7,319.1z"
		/>
	<path class="st76" d="M386.3,319.1c-1.7,1.7-3.4,3.4-5.2,5.2C382.8,322.5,384.6,320.8,386.3,319.1z"/>
	<path class="st76" d="M381.1,329.4c-1.7,1.7-3.4,3.4-5.2,5.2C377.7,332.9,379.4,331.2,381.1,329.4z"/>
	<path class="st77" d="M169.2,339.8c-1.7-1.7-3.4-3.4-5.2-5.2c1.7,0,3.4,0,5.2,0C169.2,336.3,169.2,338.1,169.2,339.8z"/>
	<path class="st76" d="M376,334.6c-1.7,1.7-3.4,3.4-5.2,5.2C372.5,338.1,374.2,336.3,376,334.6z"/>
	<path class="st0" d="M158.9,138.2c1.7-1.7,3.4-3.4,5.2-5.2C162.3,134.7,160.6,136.5,158.9,138.2z"/>
	<path class="st33" d="M407,45.1c0,1.7,0,3.4,0,5.2c-1.7,0-3.4,0-5.2,0c0-1.7,0-3.4,0-5.2C403.5,45.1,405.2,45.1,407,45.1z"/>
	<path class="st76" d="M370.8,339.8c-1.7,1.7-3.4,3.4-5.2,5.2C367.3,343.2,369.1,341.5,370.8,339.8z"/>
	<path class="st78" d="M324.3,344.9c1.7,0,3.4,0,5.2,0c-1.7,1.7-3.4,3.4-5.2,5.2C324.3,348.4,324.3,346.7,324.3,344.9z"/>
	<path class="st76" d="M365.6,344.9c0,1.7,0,3.4,0,5.2c-1.7,0-3.4,0-5.2,0C362.2,348.4,363.9,346.7,365.6,344.9z"/>
	<path class="st38" d="M469,133c-1.7,0-3.4,0-5.2,0c0-1.7,0-3.4,0-5.2c1.7,0,3.4,0,5.2,0C469,129.6,469,131.3,469,133z"/>
	<path class="st0" d="M169.2,133c1.7-1.7,3.4-3.4,5.2-5.2C172.6,129.6,170.9,131.3,169.2,133z"/>
	<path class="st79" d="M469,360.4c-1.7,0-3.4,0-5.2,0c0-1.7,0-3.4,0-5.2C465.5,357,467.3,358.7,469,360.4z"/>
	<path class="st80" d="M200.2,365.6c1.7,1.7,3.4,3.4,5.2,5.2C203.7,369.1,201.9,367.3,200.2,365.6z"/>
	<path class="st80" d="M205.4,370.8c1.7,1.7,3.4,3.4,5.2,5.2C208.8,374.2,207.1,372.5,205.4,370.8z"/>
	<path class="st80" d="M200.2,381.1c-1.7-1.7-3.4-3.4-5.2-5.2C196.8,377.7,198.5,379.4,200.2,381.1z"/>
	<path class="st0" d="M174.4,122.7c1.7,0,3.4,0,5.2,0c-1.7,1.7-3.4,3.4-5.2,5.2C174.4,126.1,174.4,124.4,174.4,122.7z"/>
	<path d="M458.7,376c1.7,1.7,3.4,3.4,5.2,5.2c-1.7,0-3.4,0-5.2,0C458.7,379.4,458.7,377.7,458.7,376z"/>
	<path class="st11" d="M453.5,396.6c1.7,1.7,3.4,3.4,5.2,5.2c-1.7,0-3.4,0-5.2,0C453.5,400.1,453.5,398.4,453.5,396.6z"/>
	<path class="st48" d="M81.3,417.3c0,1.7,0,3.4,0,5.2c-1.4-1.2-2.9-2.3-4.3-3.5C78.5,418.4,79.9,417.9,81.3,417.3z"/>
	<path class="st81" d="M96.8,432.8c0-1.7,0-3.4,0-5.2c1.7,0,3.4,0,5.2,0c0,1.7,0,3.4,0,5.2C100.3,432.8,98.6,432.8,96.8,432.8z"/>
	<path class="st0" d="M184.7,122.7c0-1.7,0-3.4,0-5.2c1.7,0,3.4,0,5.2,0C188.2,119.2,186.4,121,184.7,122.7z"/>
	<path class="st82" d="M385.8,442.7c1.2-1.4,2.4-2.8,3.6-4.2c0.5,0.5,1.1,1.1,1.6,1.6c-1.4,1.2-2.8,2.4-4.2,3.6
		C386.4,443.4,386.1,443,385.8,442.7z"/>
	<path class="st83" d="M386.3,453.5c0-1.7,0-3.4,0-5.2c1.7,1.7,3.4,3.4,5.2,5.2C389.7,453.5,388,453.5,386.3,453.5z"/>
	<path class="st84" d="M122.7,453.5c1.7,0,3.4,0,5.2,0c0,1.7,0,3.4,0,5.2C126.1,456.9,124.4,455.2,122.7,453.5z"/>
	<path class="st45" d="M127.9,458.7c0-1.7,0-3.4,0-5.2c1.7,0,3.4,0,5.2,0c0,1.7,0,3.4,0,5.2C131.3,458.7,129.6,458.7,127.9,458.7z"
		/>
	<path class="st85" d="M133,458.7c0-1.7,0-3.4,0-5.2c1.7,0,3.4,0,5.2,0C136.5,455.2,134.7,456.9,133,458.7z"/>
	<path class="st86" d="M143.4,453.5c1.7,1.7,3.4,3.4,5.2,5.2C146.8,456.9,145.1,455.2,143.4,453.5z"/>
	<path class="st87" d="M365.6,453.5c0,1.7,0,3.4,0,5.2c-1.4-1.2-2.9-2.3-4.3-3.5C362.8,454.6,364.2,454.1,365.6,453.5z"/>
	<path class="st60" d="M381.1,458.7c1.7-1.7,3.4-3.4,5.2-5.2c0,1.7,0,3.4,0,5.2C384.6,458.7,382.8,458.7,381.1,458.7z"/>
	<path class="st88" d="M386.3,458.7c0-1.7,0-3.4,0-5.2c1.7,0,3.4,0,5.2,0c0,1.7,0,3.4,0,5.2C389.7,458.7,388,458.7,386.3,458.7z"/>
	<path class="st89" d="M443.2,117.5c1.7,0,3.4,0,5.2,0c0,1.7,0,3.4,0,5.2c-3.4,0-6.9,0-10.3,0c-6.9-6.9-13.8-13.8-20.7-20.7
		c1.7-1.7,3.4-3.4,5.2-5.2c3.4,0,6.9,0,10.3,0c0.8,3.9-2.6,9.9,5.2,10.3C438.8,111.1,435.4,117.1,443.2,117.5z"/>
	<path class="st90" d="M422.5,96.8c-1.7,1.7-3.4,3.4-5.2,5.2c-3.4-3.4-6.9-6.9-10.3-10.3c5.2,0,10.3,0,15.5,0
		C422.5,93.4,422.5,95.1,422.5,96.8z"/>
	<path class="st91" d="M438,122.7c3.4,0,6.9,0,10.3,0c0,3.4,0,6.9,0,10.3c-1.7,0-3.4,0-5.2,0c-1.7-1.7-3.4-3.4-5.2-5.2
		C438,126.1,438,124.4,438,122.7z"/>
	<path class="st92" d="M86.5,112.3c0-3.4,0-6.9,0-10.3c1.7,0,3.4,0,5.2,0c0,1.7,0,3.4,0,5.2C89.9,108.9,88.2,110.6,86.5,112.3z"/>
	<path class="st93" d="M458.7,143.4c0,1.7,0,3.4,0,5.2c-1.7,0-3.4,0-5.2,0c-1.7-1.7-3.4-3.4-5.2-5.2c1.7,0,3.4,0,5.2,0
		C455.2,143.4,456.9,143.4,458.7,143.4z"/>
	<path class="st94" d="M370.8,111.1c-3.4,0-6.9,0-10.3,0c0-0.9,0-1.7,0-2.6c3.4,0,6.9,0,10.3,0C370.8,109.3,370.8,110.2,370.8,111.1
		z"/>
	<path class="st95" d="M81.3,117.5c1.7-1.7,3.4-3.4,5.2-5.2c-0.8,3.9,2.6,9.9-5.2,10.3C81.3,121,81.3,119.2,81.3,117.5z"/>
	<path class="st96" d="M376,60.7c1.7,0,3.4,0,5.2,0c0,1.7,0,3.4,0,5.2c0,1.7,0,3.4,0,5.2c-1.7-1.7-3.4-3.4-5.2-5.2
		C376,64.1,376,62.4,376,60.7z"/>
	<path class="st33" d="M386.3,71c1.7,1.7,3.4,3.4,5.2,5.2C389.7,74.4,388,72.7,386.3,71z"/>
	<path class="st33" d="M391.5,76.2c1.7,1.7,3.4,3.4,5.2,5.2C394.9,79.6,393.2,77.9,391.5,76.2z"/>
	<path class="st97" d="M401.8,86.5c1.7,0,3.4,0,5.2,0c0,1.7,0,3.4,0,5.2C405.2,89.9,403.5,88.2,401.8,86.5z"/>
	<path class="st98" d="M91.7,107.2c0-1.7,0-3.4,0-5.2c1.7,0,3.4,0,5.2,0C95.1,103.7,93.4,105.5,91.7,107.2z"/>
	<path class="st99" d="M453.5,143.4c-1.7,0-3.4,0-5.2,0c0-1.7,0-3.4,0-5.2c1.7,0,3.4,0,5.2,0C453.5,139.9,453.5,141.6,453.5,143.4z"
		/>
	<path class="st100" d="M443.2,133c1.7,0,3.4,0,5.2,0c0,1.7,0,3.4,0,5.2C446.6,136.5,444.9,134.7,443.2,133z"/>
	<path class="st101" d="M438,127.9c1.7,1.7,3.4,3.4,5.2,5.2C441.4,131.3,439.7,129.6,438,127.9z"/>
	<path class="st40" d="M76.2,127.9c-1.7,1.7-3.4,3.4-5.2,5.2c0-1.7,0-3.4,0-5.2C72.7,127.9,74.4,127.9,76.2,127.9z"/>
	<path class="st102" d="M81.3,122.7c-1.7,1.7-3.4,3.4-5.2,5.2c0-1.7,0-3.4,0-5.2C77.9,122.7,79.6,122.7,81.3,122.7z"/>
	<path class="st103" d="M267.4,72.7c1.7,0,3.4,0,5.2,0c0,0.6,0,1.1,0,1.7c-1.7,0-3.4,0-5.2,0C267.4,73.9,267.4,73.3,267.4,72.7z"/>
	<path class="st104" d="M199.7,71.5c-1.4-1.2-2.8-2.4-4.2-3.6c0.5-0.5,1.1-1.1,1.6-1.6c1.2,1.4,2.4,2.8,3.6,4.2
		C200.4,70.9,200.1,71.2,199.7,71.5z"/>
	<path class="st33" d="M381.1,71c0-1.7,0-3.4,0-5.2c1.7,1.7,3.4,3.4,5.2,5.2C384.6,71,382.8,71,381.1,71z"/>
	<path class="st105" d="M200.7,70.5c1.4,1.2,2.8,2.4,4.2,3.6c-0.5,0.5-1.1,1.1-1.6,1.6c-1.2-1.4-2.4-2.8-3.6-4.2
		C200,71.1,200.3,70.8,200.7,70.5z"/>
	<path class="st106" d="M164,381.1c2.5,0,5,0,5.6,0c5.6,5.8,10.4,10.7,15.1,15.5c-0.6,1.4-1.2,2.9-2.3,5.8
		c-5.6-2.3-11.2-4.5-18.4-7.4C164,390.8,164,386,164,381.1z"/>
	<path class="st105" d="M319.1,407c1.7,0,3.4,0,5.2,0c7.3,1.3,6,5.3,2.6,10.9C324.1,413.9,321.6,410.4,319.1,407z"/>
	<path class="st76" d="M391.5,334.6c1.7-1.7,3.4-3.4,5.2-5.2C394.9,331.2,393.2,332.9,391.5,334.6z"/>
	<path class="st107" d="M60.7,344.9c0-1.7,0-3.4,0-5.2c1.7,1.7,3.4,3.4,5.2,5.2C64.1,344.9,62.4,344.9,60.7,344.9z"/>
	<path class="st76" d="M386.3,344.9c1.7-1.7,3.4-3.4,5.2-5.2C389.7,341.5,388,343.2,386.3,344.9z"/>
	<path class="st108" d="M60.7,344.9c1.7,0,3.4,0,5.2,0c0,1.7,0,3.4,0,5.2c-1.7,0-3.4,0-5.2,0C60.7,348.4,60.7,346.7,60.7,344.9z"/>
	<path class="st76" d="M381.1,350.1c1.7,0,3.4,0,5.2,0c-1.7,1.7-3.4,3.4-5.2,5.2C381.1,353.6,381.1,351.8,381.1,350.1z"/>
	<path class="st4" d="M381.1,355.3c-1.7,1.7-3.4,3.4-5.2,5.2C377.7,358.7,379.4,357,381.1,355.3z"/>
	<path class="st65" d="M370.8,377.7c1.7,0,3.4,0,5.2,0c0,0.6,0,1.1,0,1.7c-1.7,0-3.4,0-5.2,0C370.8,378.8,370.8,378.3,370.8,377.7z"
		/>
	<path class="st109" d="M362.2,391.5c0-1.7,0-3.4,0-5.2c0.6,0,1.1,0,1.7,0c0,1.7,0,3.4,0,5.2C363.3,391.5,362.7,391.5,362.2,391.5z"
		/>
	<path class="st27" d="M239.8,417.3c0,1.7,0,3.4,0,5.2c-0.6,0-1.1,0-1.7,0c0-1.7,0-3.4,0-5.2C238.7,417.3,239.3,417.3,239.8,417.3z"
		/>
	<path class="st10" d="M329.4,313.9c0-1.7,0-3.4,0-5.2c3.4,0,6.9,0,10.3,0c1.7,3.4,3.4,6.9,5.2,10.3c-3.4,0-6.9,0-10.3,0
		C332.9,317.4,331.2,315.7,329.4,313.9z"/>
	<path class="st110" d="M329.4,313.9c1.7,1.7,3.4,3.4,5.2,5.2c-3.9-0.8-9.9,2.6-10.3-5.2C326,313.9,327.7,313.9,329.4,313.9z"/>
	<path class="st44" d="M169.2,319.1c1.7-1.7,3.4-3.4,5.2-5.2c0,1.7,0,3.4,0,5.2C172.6,319.1,170.9,319.1,169.2,319.1z"/>
	<path class="st111" d="M174.4,319.1c0-1.7,0-3.4,0-5.2c1.7,0,3.4,0,5.2,0C177.8,315.7,176.1,317.4,174.4,319.1z"/>
	<path class="st112" d="M169.2,334.6c-1.7,0-3.4,0-5.2,0c1.2-1.4,2.3-2.9,3.5-4.3C168.1,331.7,168.6,333.2,169.2,334.6z"/>
	<path class="st113" d="M169.2,339.8c0-1.7,0-3.4,0-5.2c1.4,1.2,2.9,2.3,4.3,3.5C172.1,338.6,170.6,339.2,169.2,339.8z"/>
	<path class="st111" d="M324.3,344.9c0,1.7,0,3.4,0,5.2c-1.4-1.2-2.9-2.3-4.3-3.5C321.4,346.1,322.8,345.5,324.3,344.9z"/>
	<path class="st114" d="M319.1,164c1.7,0,3.4,0,5.2,0c0,5.2,0,10.3,0,15.5c-1.7,0-3.4,0-5.2,0c0-1.7,0-3.4,0-5.2
		C319.1,170.9,319.1,167.5,319.1,164z"/>
	<path class="st115" d="M189.9,164c1.7,0,3.4,0,5.2,0c0,1.7,0,3.4,0,5.2c-1.7,0-3.4,0-5.2,0C189.9,167.5,189.9,165.8,189.9,164z"/>
	<path class="st9" d="M174.4,164c1.7,0,3.4,0,5.2,0c-1.2,1.4-2.3,2.9-3.5,4.3C175.5,166.9,174.9,165.5,174.4,164z"/>
	<path class="st116" d="M277.7,158.9c0,1.7,0,3.4,0,5.2c-1.7,0-3.4,0-5.2,0c0-1.7,0-3.4,0-5.2C274.3,158.9,276,158.9,277.7,158.9z"
		/>
	<path class="st117" d="M277.7,158.9c-1.7,0-3.4,0-5.2,0c0-1.7,0-3.4,0-5.2c1.7,0,3.4,0,5.2,0C277.7,155.4,277.7,157.1,277.7,158.9z
		"/>
	<path class="st9" d="M179.5,158.9c0-1.7,0-3.4,0-5.2c1.4,1.2,2.9,2.3,4.3,3.5C182.4,157.7,181,158.3,179.5,158.9z"/>
	<path class="st22" d="M319.1,174.4c0,1.7,0,3.4,0,5.2c-1.7,0-3.4,0-5.2,0C315.7,177.8,317.4,176.1,319.1,174.4z"/>
	<path class="st118" d="M189.9,169.2c1.7,0,3.4,0,5.2,0c-1.2,1.4-2.3,2.9-3.5,4.3C191,172.1,190.4,170.6,189.9,169.2z"/>
	<path class="st119" d="M184.7,179.5c-1.2,1.4-2.3,2.9-3.5,4.3c-0.6-1.4-1.1-2.9-1.7-4.3C181.3,179.5,183,179.5,184.7,179.5z"/>
	<path class="st120" d="M272.6,164c1.7,0,3.4,0,5.2,0c-1.2,1.4-2.3,2.9-3.5,4.3C273.7,166.9,273.1,165.5,272.6,164z"/>
	<path class="st121" d="M381.1,355.3c-1.7,1.7-3.4,3.4-5.2,5.2c-4.7,0-9.4,0-15.5,0c0-4.2,0-7.3,0-10.3c1.7,0,3.4,0,5.2,0
		c5.2,0,10.3,0,15.5,0C381.1,351.8,381.1,353.6,381.1,355.3z"/>
	<path class="st80" d="M210.6,381.1c1.7,1.7,3.4,3.4,5.2,5.2C214,384.6,212.3,382.8,210.6,381.1z"/>
	<path class="st22" d="M427.6,65.8c1.7,3.4,3.4,6.9,5.2,10.3c-1.7,1.7-3.4,3.4-5.2,5.2c-3.4,0-6.9,0-10.3,0c0-1.7,0-3.4,0-5.2
		s0-3.4,0-5.2c0-1.7,0-3.4,0-5.2C420.8,65.8,424.2,65.8,427.6,65.8z"/>
	<path class="st33" d="M417.3,81.3c3.4,0,6.9,0,10.3,0c0,1.7,0,3.4,0,5.2c-1.7,1.7-3.4,3.4-5.2,5.2c-5.2,0-10.3,0-15.5,0
		c0-1.7,0-3.4,0-5.2c1.7-1.7,3.4-3.4,5.2-5.2C413.9,81.3,415.6,81.3,417.3,81.3z"/>
	<path class="st38" d="M448.3,138.2c0-1.7,0-3.4,0-5.2c0-3.4,0-6.9,0-10.3c1.7,0,3.4,0,5.2,0c3.9,0.8,9.9-2.6,10.3,5.2
		c-3.4,3.4-6.9,6.9-10.3,10.3C451.8,138.2,450,138.2,448.3,138.2z"/>
	<path class="st122" d="M438,107.2c-7.7-0.4-4.4-6.4-5.2-10.3c3.4-1.7,6.9-3.4,10.3-5.2c0,1.7,0,3.4,0,5.2
		C441.4,100.3,439.7,103.7,438,107.2z"/>
	<path class="st123" d="M422.5,91.7c1.7-1.7,3.4-3.4,5.2-5.2c1.7,0,3.4,0,5.2,0c0,3.4,0,6.9,0,10.3c-3.4,0-6.9,0-10.3,0
		C422.5,95.1,422.5,93.4,422.5,91.7z"/>
	<path class="st33" d="M427.6,65.8c-3.4,0-6.9,0-10.3,0c0-1.7,0-3.4,0-5.2c1.7-1.7,3.4-3.4,5.2-5.2
		C430.2,55.9,426.9,61.9,427.6,65.8z"/>
	<path class="st124" d="M453.5,81.3c1.4-7.3,6.1-7,9.6-2.8c2.3,2.7,1.6,7.8-4.4,7.9C456.9,84.8,455.2,83.1,453.5,81.3z"/>
	<path class="st101" d="M443.2,117.5c-7.7-0.4-4.4-6.4-5.2-10.3C445.7,107.6,442.4,113.6,443.2,117.5z"/>
	<path class="st125" d="M443.2,96.8c0-1.7,0-3.4,0-5.2c0.8-1.7,1.5-3.3,2.7-5.7C449.2,91.6,450.3,95.6,443.2,96.8z"/>
	<path class="st33" d="M407,76.2c1.7-1.7,3.4-3.4,5.2-5.2c0,1.7,0,3.4,0,5.2C410.4,76.2,408.7,76.2,407,76.2z"/>
	<path class="st126" d="M412.1,76.2c0-1.7,0-3.4,0-5.2c1.7,0,3.4,0,5.2,0c0,1.7,0,3.4,0,5.2C415.6,76.2,413.9,76.2,412.1,76.2z"/>
	<path class="st127" d="M407,76.2c1.7,0,3.4,0,5.2,0c0,1.7,0,3.4,0,5.2C410.4,79.6,408.7,77.9,407,76.2z"/>
	<path class="st128" d="M427.6,81.3c1.7-1.7,3.4-3.4,5.2-5.2c0,1.7,0,3.4,0,5.2C431.1,81.3,429.4,81.3,427.6,81.3z"/>
	<path class="st85" d="M441.4,76.2c0,1.7,0,3.4,0,5.2c-0.6,0-1.1,0-1.7,0c0-1.7,0-3.4,0-5.2C440.3,76.2,440.9,76.2,441.4,76.2z"/>
	<path class="st22" d="M427.6,81.3c1.7,0,3.4,0,5.2,0c0,1.7,0,3.4,0,5.2c-1.7,0-3.4,0-5.2,0C427.6,84.8,427.6,83.1,427.6,81.3z"/>
	<path class="st35" d="M453.5,81.3c1.7,1.7,3.4,3.4,5.2,5.2C456.9,84.8,455.2,83.1,453.5,81.3z"/>
	<path class="st37" d="M401.8,50.3c1.7,0,3.4,0,5.2,0c0,1.7,0,3.4,0,5.2C405.2,53.8,403.5,52,401.8,50.3z"/>
	<path class="st42" d="M407.4,54.9c1.4,1.2,2.8,2.4,4.2,3.6c-0.5,0.5-1.1,1.1-1.6,1.6c-1.2-1.4-2.4-2.8-3.6-4.2
		C406.8,55.6,407.1,55.3,407.4,54.9z"/>
	<path class="st129" d="M422.5,55.5c-1.7,1.7-3.4,3.4-5.2,5.2C419,58.9,420.8,57.2,422.5,55.5z"/>
	<path class="st38" d="M396.6,65.8c1.2-1.4,2.3-2.9,3.5-4.3c0.6,1.4,1.1,2.9,1.7,4.3C400.1,65.8,398.4,65.8,396.6,65.8z"/>
	<path class="st116" d="M453.5,122.7c-1.7,0-3.4,0-5.2,0c0-1.7,0-3.4,0-5.2c1.7,0,3.4,0,5.2,0C453.5,119.2,453.5,121,453.5,122.7z"
		/>
	<path class="st130" d="M453.5,117.5c-1.7,0-3.4,0-5.2,0c1.2-1.4,2.3-2.9,3.5-4.3C452.4,114.7,452.9,116.1,453.5,117.5z"/>
	<path class="st33" d="M396.6,65.8c1.7,0,3.4,0,5.2,0c-1.2,1.4-2.3,2.9-3.5,4.3C397.8,68.7,397.2,67.3,396.6,65.8z"/>
	<path class="st131" d="M81.3,65.8c7.7,0.4,4.4,6.4,5.2,10.3c-3.9-0.8-9.9,2.6-10.3-5.2C77.9,69.3,79.6,67.5,81.3,65.8z"/>
	<path class="st131" d="M86.5,81.3c0-1.7,0-3.4,0-5.2c1.7,1.7,3.4,3.4,5.2,5.2C89.9,81.3,88.2,81.3,86.5,81.3z"/>
	<path class="st132" d="M60.7,86.5c0-1.7,0-3.4,0-5.2c1.7,0,3.4,0,5.2,0C64.1,83.1,62.4,84.8,60.7,86.5z"/>
	<path class="st133" d="M71,86.5c0-1.7,0-3.4,0-5.2c1.7,0,3.4,0,5.2,0c0,1.7,0,3.4,0,5.2C74.4,86.5,72.7,86.5,71,86.5z"/>
	<path class="st131" d="M76.2,86.5c0-1.7,0-3.4,0-5.2c1.4,1.2,2.9,2.3,4.3,3.5C79,85.4,77.6,85.9,76.2,86.5z"/>
	<path class="st134" d="M86.5,81.3c1.7,0,3.4,0,5.2,0c-1.2,1.4-2.3,2.9-3.5,4.3C87.6,84.2,87.1,82.8,86.5,81.3z"/>
	<path class="st131" d="M71,86.5c1.7,0,3.4,0,5.2,0c0,1.7,0,3.4,0,5.2C74.4,89.9,72.7,88.2,71,86.5z"/>
	<path class="st112" d="M76.2,96.8c0-1.7,0-3.4,0-5.2c1.7,0,3.4,0,5.2,0c0,1.7,0,3.4,0,5.2C79.6,96.8,77.9,96.8,76.2,96.8z"/>
	<path class="st131" d="M81.3,96.8c0-1.7,0-3.4,0-5.2c1.7,1.7,3.4,3.4,5.2,5.2C84.8,96.8,83.1,96.8,81.3,96.8z"/>
	<path class="st131" d="M91.7,102c-1.7,0-3.4,0-5.2,0c0-1.7,0-3.4,0-5.2c1.7,0,3.4,0,5.2,0C91.7,98.6,91.7,100.3,91.7,102z"/>
	<path class="st35" d="M81.3,55.5c-1.4-1.2-2.9-2.3-4.3-3.5c1.4-0.6,2.9-1.1,4.3-1.7C81.3,52,81.3,53.8,81.3,55.5z"/>
	<path class="st135" d="M81.3,55.5c0-1.7,0-3.4,0-5.2c1.7,1.7,3.4,3.4,5.2,5.2C84.8,55.5,83.1,55.5,81.3,55.5z"/>
	<path class="st136" d="M96.8,52c1.7,0,3.4,0,5.2,0c0,0.6,0,1.1,0,1.7c-1.7,0-3.4,0-5.2,0C96.8,53.2,96.8,52.6,96.8,52z"/>
	<path class="st137" d="M81.3,55.5c1.7,0,3.4,0,5.2,0c-1.2,1.4-2.3,2.9-3.5,4.3C82.5,58.3,81.9,56.9,81.3,55.5z"/>
	<path class="st118" d="M65.8,62.4c1.7,0,3.4,0,5.2,0c0,0.6,0,1.1,0,1.7c-1.7,0-3.4,0-5.2,0C65.8,63.5,65.8,63,65.8,62.4z"/>
	<path class="st138" d="M81.3,65.8c-1.7,1.7-3.4,3.4-5.2,5.2C77.9,69.3,79.6,67.5,81.3,65.8z"/>
	<path class="st139" d="M96.8,71c-1.4-1.2-2.9-2.3-4.3-3.5c1.4-0.6,2.9-1.1,4.3-1.7C96.8,67.5,96.8,69.3,96.8,71z"/>
	<path class="st140" d="M96.8,71c0-1.7,0-3.4,0-5.2c1.4,1.2,2.9,2.3,4.3,3.5C99.7,69.9,98.3,70.4,96.8,71z"/>
	<path class="st12" d="M458.7,401.8c1.7,0,3.4,0,5.2,0c1.7,1.7,3.4,3.4,5.2,5.2c0,1.7,0,3.4,0,5.2c-3.4,0-6.9,0-10.3,0
		c0-1.7,0-3.4,0-5.2S458.7,403.5,458.7,401.8z"/>
	<path class="st141" d="M458.7,417.3c1.7,2.1,3.4,4.3,5.2,6.4c-1.7,1.3-3.4,2.6-5.2,3.9c0-1.7,0-3.4,0-5.2S458.7,419,458.7,417.3z"
		/>
	<path class="st142" d="M431.1,422.5c0,1.7,0,3.4,0,5.2c-0.6,0-1.1,0-1.7,0c0-1.7,0-3.4,0-5.2C429.9,422.5,430.5,422.5,431.1,422.5z
		"/>
	<path class="st119" d="M427.6,434.5c1.7,0,3.4,0,5.2,0c0,0.6,0,1.1,0,1.7c-1.7,0-3.4,0-5.2,0C427.6,435.7,427.6,435.1,427.6,434.5z
		"/>
	<path class="st34" d="M96.8,438c-2.1,1.7-4.3,3.4-6.4,5.2c-1.3-1.7-2.6-3.4-3.9-5.2c1.7,0,3.4,0,5.2,0S95.1,438,96.8,438z"/>
	<path class="st42" d="M60.7,407c-1.7,1.7-3.4,3.4-5.2,5.2C57.2,410.4,58.9,408.7,60.7,407z"/>
	<path class="st143" d="M91.7,438c-1.7,0-3.4,0-5.2,0c0-1.7,0-3.4,0-5.2c1.7,0,3.4,0,5.2,0C91.7,434.5,91.7,436.3,91.7,438z"/>
	<path class="st28" d="M96.8,432.8c1.7,0,3.4,0,5.2,0c0,1.7,0,3.4,0,5.2c-1.7,0-3.4,0-5.2,0C96.8,436.3,96.8,434.5,96.8,432.8z"/>
	<path class="st34" d="M91.7,432.8c-1.7,0-3.4,0-5.2,0c0-1.7,0-3.4,0-5.2C88.2,429.4,89.9,431.1,91.7,432.8z"/>
	<path class="st33" d="M60.7,127.9c-10-2.4-3.2-10.4-5.2-15.5c1.7,0,3.4,0,5.2,0c0,1.7,0,3.4,0,5.2c0,1.7,0,3.4,0,5.2
		C60.7,124.4,60.7,126.1,60.7,127.9z"/>
	<path class="st120" d="M60.7,127.9c0-1.7,0-3.4,0-5.2c1.7,0,3.4,0,5.2,0c1.7,0,3.4,0,5.2,0c0,1.7,0,3.4,0,5.2c0,1.7,0,3.4,0,5.2
		c-1.7,0-3.4,0-5.2,0C64.1,131.3,62.4,129.6,60.7,127.9z"/>
	<path class="st62" d="M76.2,96.8c1.7,0,3.4,0,5.2,0c0,1.7,0,3.4,0,5.2C79.6,100.3,77.9,98.6,76.2,96.8z"/>
	<path class="st144" d="M81.3,102c0-1.7,0-3.4,0-5.2c1.7,0,3.4,0,5.2,0c0,1.7,0,3.4,0,5.2C84.8,102,83.1,102,81.3,102z"/>
	<path class="st145" d="M60.7,112.3c-1.7,0-3.4,0-5.2,0c0-1.7,0-3.4,0-5.2C57.2,108.9,58.9,110.6,60.7,112.3z"/>
	<path class="st146" d="M71,127.9c0-1.7,0-3.4,0-5.2c1.7,0,3.4,0,5.2,0c0,1.7,0,3.4,0,5.2C74.4,127.9,72.7,127.9,71,127.9z"/>
	<path class="st147" d="M81.3,122.7c-1.7,0-3.4,0-5.2,0c1.7-1.7,3.4-3.4,5.2-5.2C81.3,119.2,81.3,121,81.3,122.7z"/>
	<path class="st148" d="M65.8,122.7c-1.7,0-3.4,0-5.2,0c0-1.7,0-3.4,0-5.2C62.4,119.2,64.1,121,65.8,122.7z"/>
	<path class="st149" d="M339.8,184.7c-1.7-1.7-3.4-3.4-5.2-5.2c1.7,0,3.4,0,5.2,0C339.8,181.3,339.8,183,339.8,184.7z"/>
	<path class="st59" d="M339.8,184.7c0-1.7,0-3.4,0-5.2c1.7,0,3.4,0,5.2,0C343.2,181.3,341.5,183,339.8,184.7z"/>
	<path class="st33" d="M60.7,138.2c-1.7,1.7-3.4,3.4-5.2,5.2C57.2,141.6,58.9,139.9,60.7,138.2z"/>
	<path class="st33" d="M65.8,133c-1.7,1.7-3.4,3.4-5.2,5.2C62.4,136.5,64.1,134.7,65.8,133z"/>
	<path class="st81" d="M355.3,313.9c-1.7-1.7-3.4-3.4-5.2-5.2C351.8,310.5,353.6,312.2,355.3,313.9z"/>
	<path d="M458.7,417.3c0,1.7,0,3.4,0,5.2c-1.7,0-3.4,0-5.2,0c0-1.7,0-3.4,0-5.2C455.2,417.3,456.9,417.3,458.7,417.3z"/>
	<path class="st150" d="M453.5,422.5c1.7,0,3.4,0,5.2,0c0,1.7,0,3.4,0,5.2C456.9,425.9,455.2,424.2,453.5,422.5z"/>
	<path class="st35" d="M60.7,391.5c-1.7,0-3.4,0-5.2,0c1.7-1.7,3.4-3.4,5.2-5.2C60.7,388,60.7,389.7,60.7,391.5z"/>
	<path class="st2" d="M458.7,401.8c0,1.7,0,3.4,0,5.2c-1.7,0-3.4,0-5.2,0c0-1.7,0-3.4,0-5.2C455.2,401.8,456.9,401.8,458.7,401.8z"
		/>
</g>
</svg>
