<?xml version="1.0" encoding="utf-8"?>
<!-- Generator: Adobe Illustrator 21.0.0, SVG Export Plug-In . SVG Version: 6.00 Build 0)  -->
<svg version="1.1" id="图层_1" xmlns="http://www.w3.org/2000/svg" xmlns:xlink="http://www.w3.org/1999/xlink" x="0px" y="0px"
	 width="512px" height="512px" viewBox="0 0 512 512" style="enable-background:new 0 0 512 512;" xml:space="preserve">
<style type="text/css">
	.st0{fill:#050505;}
	.st1{fill:#EFEFEF;}
	.st2{fill:#758491;}
	.st3{fill:#E8E8E8;}
	.st4{fill:#FBFBFB;}
	.st5{fill:#EAEAEA;}
	.st6{fill:#AAAAAA;}
	.st7{fill:#010101;}
	.st8{fill:#6E7F8E;}
	.st9{fill:#F6F6F6;}
	.st10{fill:#6C7C8A;}
	.st11{fill:#F5F5F5;}
	.st12{fill:#4D5C6A;}
	.st13{fill:#6B7B88;}
	.st14{fill:#EAEAEB;}
	.st15{fill:#505F6D;}
	.st16{fill:#D4D8DB;}
	.st17{fill:#62707D;}
	.st18{fill:#3F4E5A;}
	.st19{fill:#4B5B68;}
	.st20{fill:#34404B;}
	.st21{fill:#687988;}
	.st22{fill:#101113;}
	.st23{fill:#56646F;}
	.st24{fill:#606F7C;}
	.st25{fill:#4C5762;}
	.st26{fill:#546472;}
	.st27{fill:#526270;}
</style>
<path d="M484.9,362.1c-7.6,9-11.6,24.1-28.7,17c-5.5,0.6-11.2-2.3-16.4,1.3c-13.1,7-5,18.9-5.9,28.3c-1.7,17.8,5.8,42.3-3.3,52.2
	c-10.9,11.9-35.6,3.4-54.3,3.8c-32.8,0.6-65.6,0.1-98.4,0.7c-12.6,0.2-23.1,0.4-20-17.4c1.7-9.9-8.6-12.6-13.5-18.5
	c-6-5.4-10.6-12.1-16.7-17.5c-26.9-14-60.5-13.9-83.4-39c1,30.4,34.5,39.8,42.3,65.3l0.6-0.2c-2.2,0.6-5.6,2.6-6.5,1.8
	c-44.2-41.6-103.6-66.9-133.7-123.7c-12.8-21-7.2-43.8-6.3-66.1c0.7-9.1-0.7-18.1-0.7-27.1c1.4-6.8,1.9-13.3-5.7-17.8
	c25.2,1.3,38.2,32.4,69.2,26.5c-11.2-40.7-54-61.3-62.1-102.5c35,4.2,53.2,59.5,101.9,40.3c-23-11.7-51.2-14.4-65.5-39.8
	C64.9,106.4,56.3,80.3,32.5,61c21.5,0.3,36.2,7.3,49.9,19c37,31.9,80.4,45,129.7,42.2c-5.6-19.6-10.8-38.2-37.8-47.6
	c31.3-2.6,50.8,2.6,66.7,24.2c18.9,25.7,48.3,22.6,76.2,19.6c3.3-3.1,5.4-7.5,10.4-8.6c6.5-1.8,13.3-2.3,19.8-4.5
	c4.4-1.2,8.9-1.9,13.4-2.5c5.8-0.7,11.4-2.6,17.3-2.6c7,0.7,11.4,3.9,11.4,11.5c-0.6,3.7-2.4,6.8-4.8,9.7
	c-5.9,6.2-12.2,11.5-21.4,11.5c-4.6-0.1-9-1.5-13.5-2c-5.9-0.3-11.1,1.4-15.8,4.8c-3.2,2.3-8.3,4.8-6.9,8.7
	c1.1,3.1,7.5,1.1,10.8,3.8c5.1,4.9,6.5,11.7,9.4,17.7c5.7,12.8,21.7,14.9,28.2,26.8c3.1,4.9,7,10,7.4,15.4
	c3.6,43.2,36.5,60.9,68.5,79.1c5.8,3.3,11.2,6.8,14.8,12.5C477.3,319.1,483.1,340,484.9,362.1z"/>
<path class="st0" d="M371.9,193.2c-9-9.4-26.2-9.2-29.6-25.2c2.7-2.1,5.7-3.1,9.1-2.5c15.2,2.8,15.2,2.8,17.7-11.4
	c0.9-1.4,1.8-2.8,3.2-3.6c9.5-5.6,18.8-17,30.3-10.7c13.2,7.3,11.5,21.7,7.9,37.4c6-17.3-1.8-31.6-0.9-46.2
	c-0.1-2.5-0.1-4.9-0.1-7.4c-0.3-32-0.3-32-33.2-32.3c-9.4,0.1-18.7-0.1-28.1,0c-2.8,0.1-5.6,0.1-8.4,0.1c-13,0.4-26,0.2-38.9-0.7
	c-17.3-4.5-36.1,3.8-52.7-6c-5.7-4.5-10.4-9.8-13.3-19.6c63.2,0,125.3,0.1,187.4-0.1c15.5-0.1,11.2,11.1,11.3,19.1
	c0.3,45.2,0.7,90.4-0.1,135.6c-0.3,17.5,3.4,32,17.4,43.1c2.1,1.1,3.8,2.7,5,4.8c8.7,9.2,13,23.5,28.6,24.9
	c-3.5,12.4-5.1,12.9-19.5,6.8c-14.9-16.6-36.2-25.7-50.6-43c-4.7-5.7-13.9-11.2-12.6-17.6C406.9,212.6,386.1,205.4,371.9,193.2z"/>
<path class="st1" d="M464.5,300.3c6.7-2.3,16,1.6,19.7-8c5.8,1.1,5.9,5.5,5.9,10c-4,11-3.4,22.1-0.3,33.1c1.9,9.5-3.7,17.7-4.9,26.7
	c-7.4-20.2-14.7-40.4-22.1-60.7C462.8,301.5,464.5,300.3,464.5,300.3z"/>
<path class="st2" d="M248.1,84.7c18.2,0,36.3,0,54.5,0c10.6,8,33,6,24.9,29.6c-3.3,1.7-5.7,5.8-10.3,4.2
	c-6.5-24.1-25.9-24.6-45.4-24.9C262.7,93.5,251.7,99,248.1,84.7z"/>
<path class="st3" d="M44.9,247.5c0.7,22.9,1.5,45.7,2.2,68.6c-12.4-3.4-16.8-12-16-24.1c1.3-1.3,2.8-2.6,4.2-3.8
	C40.5,275,27.7,257.7,44.9,247.5z"/>
<path class="st4" d="M44.9,247.5c-9.3,13.8-1.5,29.6-5.2,44.1c-0.1,0.5-1.1,1.1-1.7,1.1c-0.7,0-1.5-0.5-2.2-0.8
	c-3.6-13.2-3.8-26.3,0.1-39.5c1.4-9.9-3.4-20.6,4.1-29.6C46.5,230.1,47,238.6,44.9,247.5z"/>
<path class="st5" d="M35.9,252.5c0,13.2-0.1,26.3-0.1,39.5c0,0-2.3,0-2.3,0s-2.3,0-2.3,0C33.1,278.8,26,264.6,35.9,252.5z"/>
<path class="st6" d="M227.7,411.9c8.2,3.3,17.2,5.9,16.7,17.5C237.2,425.2,226.8,424,227.7,411.9z"/>
<path class="st7" d="M186.7,438.2c9.6,3.3,8.2,9.7,4.1,18c0.9-7.4-12.6-9.9-3.6-18.2C187.3,438,186.7,438.2,186.7,438.2z"/>
<path class="st8" d="M406.5,424.8c5.4,3.9,10.9,8,8.7,15.7c-2.6,9.1-10.5,5.5-16.4,5.9c-27.3,2-54.3-1.8-81.2-5.6
	c-5.9-1-9.5-5.3-13-9.6c-2.8-7.6-14.5-10.2-11.9-20.9c-2.9-32.8,5.3-64.9,7.3-100.3c-17,5.6-32.1,9.3-46.1,15.6
	c-16.8,7.6-29.7,2.9-37.6-11.4c-11.3-20.5-38.3-36.6-21.8-66.5c12.9,2.1,3.1,13.9,8.2,19.3c15.8,36.8,26.4,42.5,65.1,35
	c8-1.6,16-3.1,24-5c18.9-4.5,31.5,1.1,30.3,22.2c-1.2,21.7,11.4,30.9,29.1,31.2c25.2,0.5,39.5,20.6,59.6,29.8
	c8.6,3.9,12.9,22-3.7,30.6C400.4,415.3,397.2,419.7,406.5,424.8z"/>
<path class="st9" d="M464.5,300.3l-1.6,1.2c-28.2-11-49.6-31.4-71.3-51.5c-8.1-7.5-18.3-12.8-10.6-27.7c5.4-10.5-11.2-17.6-9-29.1
	c12.7,1.2,21.6,10.5,32.5,15.3c2.7,1.2,6.9,5.6,6.4,6.3c-18.9,35,20.4,39,31.1,58C447.8,283.1,461.6,287.3,464.5,300.3z"/>
<path class="st10" d="M415.2,134c0.3,15.6,0.7,31.2,0.7,46.9c0,4.6,1.3,10.6-5.4,11.9c-2.9,0.5-6.7-0.5-9.1-2.1
	c-6.7-4.6-0.6-7.9,1.6-11.8c2.4-4.2,5.8-8.8,5.8-13.3c-0.1-8-0.7-17.3-7.2-22.6c-7-5.6-10.3,5.1-16.1,6.4c-4.7,1.1-9.2,2.9-13.8,4.4
	c-9,2.8-12.7-3.4-16.4-9.6c-1.2-6.6,1.8-11.3,7.1-14.9c8.6,0.2,12-8.5,19-11.1c3.1,0.9,6.1,2.1,8,4.6c3.5,4.9,6.3,7.9,8.3-0.8
	C408.1,119.4,411.9,126.3,415.2,134z"/>
<path class="st11" d="M168,367.1c-21.2-29.3-63.5-28.1-77.4-63.2C142.5,318.1,174.8,332.2,168,367.1z"/>
<path class="st12" d="M415.2,134c-6.2-3.6-10.4-10.8-18.9-10.2c-7.9,0.6-11.9-2.3-10.2-10.8c1.1-7.5-3.9-8.5-9.4-8.7
	c-7.2-6.7-9.4-13.4,0-20.1C421,84.8,416.4,72.5,415.2,134z"/>
<path class="st13" d="M317.4,213.1c-7,1.2-14.6-0.5-17.5-6.2c-4.2-8.3-1.4-19.6-12.1-25.4c-7.8-4.2-15-9.7-21.6-16.2
	c22.4,4.8,46.6,5.6,61.1,27.9C322.5,199,322.4,207.2,317.4,213.1z"/>
<path class="st14" d="M356.3,142.7c5.1,3.7,10.3,7.4,15.4,11.1c0.4,6.4,0.9,12.8,1.4,20.1c-11.5,3.6-20.4-5.7-30.8-5.8
	c-3.2-6-9.7-11-5.7-19.2c0.6-0.9,1.2-1.8,1.8-2.7C343.8,142,349.3,138.6,356.3,142.7z"/>
<path class="st15" d="M327.4,114.3c2.1-18.6-20-16.9-24.9-29.7c13.2-0.1,26.4-0.2,39.6-0.2c2.5,2.4,3.3,5.4,2.9,8.7
	c-2.6,6.2,0.3,11.4,3,16.7C341.9,114.6,334.7,114.5,327.4,114.3z"/>
<path class="st16" d="M317.4,213.1c1-7.8-15-24,9.9-19.9c8.6,6,16.4,12.8,23.1,24.5C338,218.5,327.5,217.7,317.4,213.1z"/>
<path class="st17" d="M336.6,148.8c-6.4,2.4-12.7,4.8-19.7,7.4c3.2-22.8,7.8-26.9,34.5-32c9.5,16.4-10.1,16.1-14.2,24.6L336.6,148.8
	z"/>
<path class="st18" d="M376.7,84.3c-4.8,6.7-0.2,13.4,0,20.1c-4.7,2.6-9.3,5.4-15.1,4.2c-2.8-2.8-6-5.3-8.2-8.7
	c-2.2-5.1-9.9-8-6.3-15.4C356.9,84.4,366.8,84.3,376.7,84.3z"/>
<path class="st19" d="M308.4,429.5c3.1,3.8,6.1,7.6,9.2,11.4c-12.3,11.7-23.1,17.2-26.2-6.8C296.7,431.3,303.1,432.2,308.4,429.5z"
	/>
<path class="st20" d="M308.4,429.5c-2.2,14.1-11.1,4-17,4.6c1.8-7.8-7.8-16.3,1.3-23.7C297.9,416.8,308.3,418.9,308.4,429.5z"/>
<path class="st21" d="M357.1,99.1c3.7,2.1,4.8,5.5,4.5,9.5c-4.5,0.4-9,0.9-13.5,1.3c-8.7-2.7-21.8-3.7-5.9-15.7
	C348.6,91.3,349.9,104.2,357.1,99.1z"/>
<path class="st22" d="M337.2,148.9c-0.8-11.4,16.5-12.3,14.2-24.6c3.7,1.7,7.3,3.3,11,5c0.5,5.6-3.1,9.4-6.1,13.4
	C349.4,143.2,344.8,150.8,337.2,148.9z"/>
<path class="st23" d="M406.5,424.8c-13.6,8.9-13.9-6.1-13.7-10.2c0.4-12.4,9.5-1.9,14.4-3.7C406.9,415.6,406.7,420.2,406.5,424.8z"
	/>
<path class="st24" d="M202.7,267.1c-2.7-6.4-5.5-12.9-8.2-19.3c0.7-5.8,3.1-10.7,10.4-16.6C204.1,244.7,203.4,255.9,202.7,267.1z"/>
<path class="st25" d="M451,315.5c-1,1.1-2.5,3.9-3.7,3.8c-4-0.4-8.1-2.1-9-6.5c-0.2-1.3,2.5-4.1,4.2-4.6
	C447.4,306.9,449.9,309.9,451,315.5z"/>
<path class="st26" d="M386.1,113.1c1.8,5.1,5.2,8.7,10.2,10.8c-0.7,2.1-1.5,6.1-2.2,6.1c-7.5-0.1-9.9-6.3-12.7-11.8
	C382.9,116.4,384.5,114.8,386.1,113.1z"/>
<path class="st27" d="M357.1,99.1c-7.4,5.7-10.5-1.6-15-4.8c0-3.3,0-6.5,0-9.8c1.6,0,3.3,0,4.9,0C350.1,89.5,357.6,91.5,357.1,99.1z
	"/>
</svg>
