<?xml version="1.0" encoding="utf-8"?>
<!-- Generator: Adobe Illustrator 21.0.0, SVG Export Plug-In . SVG Version: 6.00 Build 0)  -->
<svg version="1.1" id="图层_1" xmlns="http://www.w3.org/2000/svg" xmlns:xlink="http://www.w3.org/1999/xlink" x="0px" y="0px"
	 viewBox="0 0 350 350" style="enable-background:new 0 0 350 350;" xml:space="preserve">
<style type="text/css">
	.st0{fill:#DEDEDE;}
	.st1{fill:#666668;}
	.st2{fill:none;}
	.st3{stroke:#FFFFFF;stroke-miterlimit:10;}
	.st4{font-family:'MicrosoftYaHeiLight';}
	.st5{font-size:12px;}
</style>
<title>R6-Recruit-Orange</title>
<g id="Background">
	<rect x="60" y="60" class="st0" width="230" height="230"/>
	<rect x="70" y="70" width="210" height="210"/>
	<rect x="77" y="77" class="st1" width="196" height="196"/>
	<path class="st2" d="M76.5,110.7l163.3,163l33.9,0.1l-0.1-34.8L110.9,76.6l-34.5-0.2L76.5,110.7z"/>
	<text transform="matrix(1 0 0 1 76.4233 86.6421)"><tspan x="0" y="0" class="st3 st4 st5">R6SG</tspan><tspan x="0" y="14.4" class="st3 st4 st5">ROUND</tspan><tspan x="4.8" y="28.8" class="st3 st4 st5">R6SGROU</tspan><tspan x="19.3" y="43.2" class="st3 st4 st5">NDR6SGR</tspan><tspan x="33.7" y="57.6" class="st3 st4 st5">OUNDR6S</tspan><tspan x="48.1" y="72" class="st3 st4 st5">GROUNDR</tspan><tspan x="62.5" y="86.4" class="st3 st4 st5">6SGROUN</tspan><tspan x="76.9" y="100.8" class="st3 st4 st5">DR6SGRO</tspan><tspan x="91.4" y="115.2" class="st3 st4 st5">UNDR6SG</tspan><tspan x="105.8" y="129.6" class="st3 st4 st5">ROUNDR6</tspan><tspan x="120.2" y="144" class="st3 st4 st5">SGROUND</tspan><tspan x="134.6" y="158.4" class="st3 st4 st5">R6SGROU</tspan><tspan x="149.1" y="172.8" class="st3 st4 st5">NDR6SG</tspan></text>
</g>
</svg>
