<?xml version="1.0" standalone="no"?><!DOCTYPE svg PUBLIC "-//W3C//DTD SVG 1.1//EN" "http://www.w3.org/Graphics/SVG/1.1/DTD/svg11.dtd"><svg class="icon" width="200px" height="200.00px" viewBox="0 0 1024 1024" version="1.1" xmlns="http://www.w3.org/2000/svg"><path fill="#1296db" d="M133.12 209.92c-46.08 0-81.92 35.84-81.92 81.92v460.8c0 46.08 35.84 81.92 81.92 81.92 46.08 0 81.92-35.84 81.92-81.92v-460.8c0-46.08-35.84-81.92-81.92-81.92z m25.6 542.72c0 15.36-10.24 25.6-25.6 25.6s-25.6-10.24-25.6-25.6v-460.8c0-15.36 10.24-25.6 25.6-25.6s25.6 10.24 25.6 25.6v460.8zM378.88 430.08c-46.08 0-81.92 35.84-81.92 81.92v245.76c0 46.08 35.84 81.92 81.92 81.92 46.08 0 81.92-35.84 81.92-81.92V506.88c-5.12-40.96-40.96-76.8-81.92-76.8z m25.6 322.56c0 15.36-10.24 25.6-25.6 25.6s-25.6-10.24-25.6-25.6V506.88c0-15.36 10.24-25.6 25.6-25.6s25.6 10.24 25.6 25.6v245.76zM865.28 506.88c-46.08 0-81.92 35.84-81.92 81.92v163.84c0 46.08 35.84 81.92 81.92 81.92 46.08 0 81.92-35.84 81.92-81.92v-163.84c0-40.96-35.84-81.92-81.92-81.92z m25.6 245.76c0 15.36-10.24 25.6-25.6 25.6s-25.6-10.24-25.6-25.6v-163.84c0-15.36 10.24-25.6 25.6-25.6s25.6 10.24 25.6 25.6v163.84zM619.52 102.4c-46.08 0-81.92 35.84-81.92 81.92v568.32c0 46.08 35.84 81.92 81.92 81.92 46.08 0 81.92-35.84 81.92-81.92V184.32c0-46.08-35.84-81.92-81.92-81.92z m25.6 650.24c0 15.36-10.24 25.6-25.6 25.6s-25.6-10.24-25.6-25.6V184.32c0-15.36 10.24-25.6 25.6-25.6s25.6 10.24 25.6 25.6v568.32zM76.8 942.08c-15.36 0-25.6-10.24-25.6-25.6s10.24-25.6 25.6-25.6h865.28c15.36 0 25.6 10.24 25.6 25.6s-10.24 25.6-25.6 25.6H76.8z"  /></svg>