<?xml version="1.0" standalone="no"?><!DOCTYPE svg PUBLIC "-//W3C//DTD SVG 1.1//EN" "http://www.w3.org/Graphics/SVG/1.1/DTD/svg11.dtd"><svg class="icon" width="200px" height="200.00px" viewBox="0 0 1024 1024" version="1.1" xmlns="http://www.w3.org/2000/svg"><path fill="#1296db" d="M792 432V312s0-280-280-280-280 280-280 280v120H112v560h800V432H792zM552 740.9V872h-80V740.9c-23.8-13.9-40-39.4-40-68.9 0-44.2 35.8-80 80-80s80 35.8 80 80c0 29.5-16.2 55-40 68.9M712 432H312V312.5C312.4 279 324.2 112 512 112s199.6 167 200 200v120z m0 0"  /></svg>