<?xml version="1.0" standalone="no"?><!DOCTYPE svg PUBLIC "-//W3C//DTD SVG 1.1//EN" "http://www.w3.org/Graphics/SVG/1.1/DTD/svg11.dtd"><svg class="icon" width="200px" height="200.00px" viewBox="0 0 1024 1024" version="1.1" xmlns="http://www.w3.org/2000/svg"><path fill="#1296db" d="M702.464 680.96c-5.12 0-10.24-2.048-14.336-6.144l-88.064-88.064c-8.192-8.192-8.192-20.48 0-28.672s20.48-8.192 28.672 0l88.064 88.064c8.192 8.192 8.192 20.48 0 28.672-4.096 4.096-9.216 6.144-14.336 6.144zM614.4 680.96c-5.12 0-10.24-2.048-14.336-6.144-8.192-8.192-8.192-20.48 0-28.672l88.064-88.064c8.192-8.192 20.48-8.192 28.672 0s8.192 20.48 0 28.672l-88.064 88.064c-4.096 4.096-9.216 6.144-14.336 6.144zM275.456 454.656c-11.264 0-20.48-9.216-20.48-20.48v-93.184c0-11.264 9.216-20.48 20.48-20.48s20.48 9.216 20.48 20.48v93.184c0 11.264-9.216 20.48-20.48 20.48zM315.392 431.104c-3.072 0-7.168-1.024-10.24-3.072l-80.896-47.104c-10.24-6.144-13.312-18.432-7.168-27.648 6.144-10.24 18.432-13.312 27.648-7.168l80.896 47.104c10.24 6.144 13.312 18.432 7.168 27.648-3.072 6.144-10.24 10.24-17.408 10.24zM234.496 431.104c-7.168 0-14.336-4.096-17.408-10.24-6.144-10.24-2.048-22.528 7.168-27.648l80.896-47.104c10.24-6.144 22.528-2.048 27.648 7.168 6.144 10.24 2.048 22.528-7.168 27.648l-80.896 47.104c-3.072 2.048-7.168 3.072-10.24 3.072zM418.816 454.656c-11.264 0-20.48-9.216-20.48-20.48v-93.184c0-11.264 9.216-20.48 20.48-20.48s20.48 9.216 20.48 20.48v93.184c0 11.264-9.216 20.48-20.48 20.48zM459.776 431.104c-3.072 0-7.168-1.024-10.24-3.072l-81.92-47.104c-10.24-6.144-13.312-18.432-7.168-27.648 6.144-10.24 18.432-13.312 27.648-7.168l81.92 47.104c10.24 6.144 13.312 18.432 7.168 27.648-3.072 6.144-10.24 10.24-17.408 10.24zM377.856 431.104c-7.168 0-14.336-4.096-17.408-10.24-6.144-10.24-2.048-22.528 7.168-27.648l81.92-47.104c10.24-6.144 22.528-2.048 27.648 7.168 6.144 10.24 2.048 22.528-7.168 27.648l-81.92 47.104c-3.072 2.048-7.168 3.072-10.24 3.072zM562.176 454.656c-11.264 0-20.48-9.216-20.48-20.48v-93.184c0-11.264 9.216-20.48 20.48-20.48s20.48 9.216 20.48 20.48v93.184c0 11.264-9.216 20.48-20.48 20.48zM603.136 431.104c-3.072 0-7.168-1.024-10.24-3.072L512 380.928c-10.24-6.144-13.312-18.432-7.168-27.648 6.144-10.24 18.432-13.312 27.648-7.168l80.896 47.104c10.24 6.144 13.312 18.432 7.168 27.648-3.072 6.144-10.24 10.24-17.408 10.24zM522.24 431.104c-7.168 0-14.336-4.096-17.408-10.24-6.144-10.24-2.048-22.528 7.168-27.648l80.896-47.104c10.24-6.144 22.528-2.048 27.648 7.168 6.144 10.24 2.048 22.528-7.168 27.648L532.48 428.032c-3.072 2.048-7.168 3.072-10.24 3.072zM730.112 454.656c-11.264 0-20.48-9.216-20.48-20.48v-93.184c0-11.264 9.216-20.48 20.48-20.48s20.48 9.216 20.48 20.48v93.184c0 11.264-9.216 20.48-20.48 20.48zM771.072 431.104c-3.072 0-7.168-1.024-10.24-3.072l-81.92-47.104c-10.24-6.144-13.312-18.432-7.168-27.648 5.12-10.24 18.432-13.312 27.648-7.168l81.92 47.104c10.24 6.144 13.312 18.432 7.168 27.648-3.072 6.144-10.24 10.24-17.408 10.24zM689.152 431.104c-7.168 0-14.336-4.096-17.408-10.24-6.144-10.24-2.048-22.528 7.168-27.648l81.92-47.104c10.24-6.144 22.528-2.048 27.648 7.168 6.144 10.24 2.048 22.528-7.168 27.648l-81.92 47.104c-3.072 2.048-7.168 3.072-10.24 3.072zM658.432 757.76c-35.84 0-72.704-13.312-100.352-40.96-55.296-55.296-55.296-144.384 0-199.68s144.384-55.296 199.68 0 55.296 144.384 0 199.68c-26.624 26.624-62.464 40.96-99.328 40.96z m0-242.688c-25.6 0-51.2 10.24-70.656 29.696-38.912 38.912-38.912 102.4 0 142.336 38.912 38.912 102.4 38.912 142.336 0 38.912-38.912 38.912-102.4 0-142.336-19.456-19.456-45.056-29.696-71.68-29.696zM848.896 540.672h-24.576c-11.264 0-20.48-9.216-20.48-20.48s9.216-20.48 20.48-20.48h4.096V277.504H175.104v222.208h314.368c11.264 0 20.48 9.216 20.48 20.48s-9.216 20.48-20.48 20.48H154.624c-11.264 0-20.48-9.216-20.48-20.48V257.024c0-11.264 9.216-20.48 20.48-20.48h694.272c11.264 0 20.48 9.216 20.48 20.48v263.168c0 11.264-9.216 20.48-20.48 20.48z" /></svg>