<?xml version="1.0" encoding="utf-8"?>
<!-- Generator: Adobe Illustrator 21.0.0, SVG Export Plug-In . SVG Version: 6.00 Build 0)  -->
<svg version="1.0" id="图层_1" xmlns="http://www.w3.org/2000/svg" xmlns:xlink="http://www.w3.org/1999/xlink" x="0px" y="0px"
	 viewBox="0 0 54.6 54.7" style="enable-background:new 0 0 54.6 54.7;" xml:space="preserve">
<style type="text/css">
	.st0{enable-background:new    ;}
	.st1{fill:#FFFFFF;}
</style>
<g class="st0">
	<path class="st1" d="M54.6,27.4L51,27.7l-0.1-1.8c-0.5-6.5-3.1-11.9-8-16.2C38,5.4,32.3,3.4,25.7,3.8c-6.6,0.5-12,3.1-16.2,8
		c-4.4,5-6.4,10.7-5.9,17.2c0.5,5.9,2.8,11,7,15.2S20,50.6,25.9,51l1.8,0.1l-0.1,3.5h-1.8c-6.9-0.5-12.8-3.1-17.7-8
		c-4.9-4.9-7.5-10.7-7.9-17.6C-0.4,21.6,1.8,15,6.9,9.4C11.8,3.8,18,0.7,25.6,0.1C33.1-0.3,39.7,2,45.3,6.9
		c5.7,4.9,8.7,11.1,9.2,18.6V27.4z M29.1,27l9.7-1.7l0.6,3.5l-13.8,2.5l-0.1-18.8l3.7-0.1V27z"/>
</g>
</svg>
