<?xml version="1.0" encoding="utf-8"?>
<!-- Generator: Adobe Illustrator 21.0.0, SVG Export Plug-In . SVG Version: 6.00 Build 0)  -->
<svg version="1.1" id="Layer_1" xmlns="http://www.w3.org/2000/svg" xmlns:xlink="http://www.w3.org/1999/xlink" x="0px" y="0px"
	 viewBox="0 0 27.9 56.5" style="enable-background:new 0 0 27.9 56.5;" xml:space="preserve">
<style type="text/css">
	.st0{fill:none;stroke:#FF0049;stroke-width:0.25;stroke-miterlimit:10;}
	.st1{display:none;}
	.st2{fill:#FFFFFF;}
	.st3{display:inline;}
</style>
<symbol  id="chart_1_" viewBox="-20.1 -20.1 40.3 40.3">
	<polygon class="st0" points="20,-20 -20,-20 -20,20 20,20 	"/>
	<polygon class="st0" points="14.1,-14.1 -14.1,-14.1 -14.1,14.1 14.1,14.1 	"/>
	<path class="st0" d="M20,0c0-11.1-8.9-20-20-20s-20,8.9-20,20s8.9,20,20,20S20,11.1,20,0z"/>
	<path class="st0" d="M14.1,0c0-7.8-6.3-14.1-14.1-14.1S-14.1-7.8-14.1,0S-7.8,14.1,0,14.1S14.1,7.8,14.1,0z"/>
</symbol>
<g id="icons_-_stroke" class="st1">
</g>
<g id="icons_-_outline">
	<g>
		<path class="st2" d="M27.9,16.3v-5.6C27.9,3.6,23.3,0,14,0C4.7,0,0,3.6,0,10.8v35.7c0,6.6,4.6,10,14,10c4.1,0,7.5-0.9,10-2.6
			c2.6-1.7,3.9-4.2,3.9-7.5V24c0-1.6-2.7-5.3-8.6-5.4c-5,0-6.5,0.3-7.4,1.5v-9.3c0,0,0.1-1,2-1c2,0,2.2,1,2.2,1l0,5.5
			C16,16.3,27.9,16.3,27.9,16.3z M12.9,29.7c0,0,0.2,1.2,1.3,1.2c1.1,0.1,3.3-1,4.8-1.5c0.6-0.2,1.1-0.3,1.3-0.3
			c0.7,0,0.8-0.1,1.3,0.4c0.5,0.5,0.5,1.4,0.5,1.4v3.2l-4.9,0.9c0,0-0.4,0-0.7,0.3c-0.2,0.2-0.3,0.6-0.3,0.6v3.8c0,0,0,0.3-0.2,0.4
			c-0.2,0.1-0.5,0.1-0.5,0.1s-1,0.1-1.7,0.5c-1,0.5-1,1-1,1v8.7c0,0-0.3,0.2-0.7,0.3c-0.4,0.1-1,0.1-1,0.1L11.1,51H9.6l-0.2-0.3H9
			v-0.4H8.7l-0.1-0.1L9,49.2V31.8l-0.3-0.3v-0.7h0.4c0,0,0-0.3,0.1-0.6c0-0.1,0.5-0.4,1.9-0.5C12.1,29.7,12.9,29.7,12.9,29.7z"/>
		<path class="st2" d="M13.3,39.7c0.1,0.1,0.4,0.1,0.4,0.1h1.8c0,0,0.2,0,0.3-0.1c0.1-0.1,0.2-0.3,0.2-0.3v-3.1c0,0-0.1-0.3-0.3-0.5
			c-0.1-0.1-0.3-0.2-0.5-0.3c-0.2,0-0.5,0.1-0.5,0.1s0.5,0.3,0.8,0.6c0.2,0.3,0.3,0.5,0.3,0.7c-0.1,0.1-0.8-0.4-1.5-0.3
			c-0.7,0.1-1.2,0.7-1.2,0.7v2.1C13.1,39.4,13.2,39.6,13.3,39.7z"/>
	</g>
</g>
<g id="rulers" class="st1">
	
		<use xlink:href="#chart_1_"  width="40.3" height="40.3" id="XMLID_61_" x="-20.1" y="-20.1" transform="matrix(1.9902 0 0 -1.9902 13.838 28.4365)" style="display:inline;overflow:visible;"/>
	<g id="chart" class="st3">
	</g>
</g>
<g id="workbench" class="st1">
</g>
</svg>
