<?xml version="1.0" encoding="utf-8"?>
<!-- Generator: Adobe Illustrator 16.0.2, SVG Export Plug-In . SVG Version: 6.00 Build 0)  -->
<!DOCTYPE svg PUBLIC "-//W3C//DTD SVG 1.1//EN" "http://www.w3.org/Graphics/SVG/1.1/DTD/svg11.dtd">
<svg version="1.1" id="Layer_1" xmlns="http://www.w3.org/2000/svg" xmlns:xlink="http://www.w3.org/1999/xlink" x="0px" y="0px"
	 width="347.45px" height="77.71px" viewBox="0 0 347.45 77.71" enable-background="new 0 0 347.45 77.71" xml:space="preserve">
<g>
	<path fill="#FFFFFF" d="M346.85,21.73l-4.43,2.56L316.88,9.54l-25.84,14.92l-0.3,0.17v29.5l-4.43,2.56l0.6,1.03l4.43-2.56
		l25.54,14.75l25.84-14.92l0.3-0.17v-29.5l4.43-2.56L346.85,21.73z M341.83,54.13l-24.95,14.4l-24.95-14.4V25.32l24.95-14.41
		l24.95,14.41V54.13z M300.47,48.59c-0.8,0-1.45-0.1-1.96-0.3c-0.5-0.2-0.9-0.49-1.2-0.87c-0.29-0.38-0.5-0.85-0.61-1.4
		c-0.11-0.55-0.18-1.18-0.2-1.88l1.54-0.2c0.05,0.68,0.11,1.23,0.2,1.65c0.08,0.42,0.21,0.74,0.39,0.96
		c0.17,0.22,0.41,0.37,0.7,0.44c0.29,0.07,0.67,0.11,1.14,0.11c0.47,0,0.86-0.06,1.16-0.18c0.3-0.12,0.53-0.28,0.7-0.48
		c0.17-0.21,0.28-0.45,0.34-0.72c0.06-0.28,0.09-0.57,0.09-0.88c0-0.44-0.06-0.83-0.18-1.19c-0.12-0.36-0.3-0.73-0.55-1.11
		c-0.24-0.38-0.56-0.79-0.95-1.23c-0.39-0.44-0.85-0.96-1.38-1.55c-0.48-0.54-0.91-1.02-1.27-1.45c-0.37-0.43-0.68-0.85-0.93-1.26
		c-0.25-0.41-0.44-0.82-0.56-1.23c-0.13-0.41-0.19-0.85-0.19-1.34c0-1.14,0.3-2.02,0.91-2.65c0.61-0.63,1.56-0.95,2.84-0.95
		c1.22,0,2.11,0.3,2.68,0.9c0.57,0.6,0.87,1.56,0.89,2.89l-1.57,0.18c-0.05-0.52-0.11-0.94-0.18-1.26
		c-0.08-0.32-0.19-0.57-0.33-0.75c-0.14-0.18-0.33-0.3-0.57-0.36c-0.24-0.06-0.55-0.1-0.92-0.1c-0.43,0-0.78,0.04-1.06,0.13
		c-0.28,0.09-0.51,0.22-0.68,0.4c-0.17,0.18-0.29,0.4-0.36,0.66c-0.07,0.26-0.1,0.57-0.1,0.91c0,0.34,0.05,0.65,0.14,0.94
		c0.09,0.29,0.24,0.59,0.44,0.91c0.2,0.31,0.46,0.66,0.78,1.03c0.32,0.37,0.7,0.81,1.15,1.31c0.61,0.68,1.14,1.28,1.58,1.8
		s0.81,1.01,1.1,1.46s0.5,0.92,0.63,1.38c0.14,0.46,0.21,0.99,0.21,1.58c0,1.19-0.33,2.1-0.97,2.75
		C302.69,48.26,301.74,48.59,300.47,48.59z M308.23,32.51h-3.33V31h8.13v1.51h-3.26v15.96h-1.54V32.51z M316.04,30.87h1.57
		l3.33,17.61h-1.54l-0.91-4.93h-3.38l-0.93,4.93h-1.45L316.04,30.87z M318.17,42.11l-1.39-7.67l-0.59,3.38l-0.82,4.29H318.17z
		 M323.93,32.51h-3.33V31h8.13v1.51h-3.26v15.96h-1.54V32.51z M333.27,48.59c-0.8,0-1.45-0.1-1.95-0.3c-0.5-0.2-0.9-0.49-1.2-0.87
		c-0.3-0.38-0.5-0.85-0.61-1.4c-0.12-0.55-0.18-1.18-0.2-1.88l1.54-0.2c0.05,0.68,0.11,1.23,0.2,1.65c0.09,0.42,0.22,0.74,0.39,0.96
		s0.41,0.37,0.7,0.44c0.29,0.07,0.67,0.11,1.14,0.11c0.47,0,0.86-0.06,1.16-0.18c0.3-0.12,0.54-0.28,0.7-0.48
		c0.17-0.21,0.28-0.45,0.34-0.72s0.09-0.57,0.09-0.88c0-0.44-0.06-0.83-0.18-1.19c-0.12-0.36-0.3-0.73-0.55-1.11
		c-0.25-0.38-0.56-0.79-0.95-1.23c-0.39-0.44-0.85-0.96-1.38-1.55c-0.48-0.54-0.91-1.02-1.28-1.45c-0.37-0.43-0.68-0.85-0.93-1.26
		c-0.25-0.41-0.44-0.82-0.56-1.23c-0.13-0.41-0.19-0.85-0.19-1.34c0-1.14,0.3-2.02,0.91-2.65c0.61-0.63,1.55-0.95,2.83-0.95
		c1.22,0,2.11,0.3,2.68,0.9c0.57,0.6,0.87,1.56,0.89,2.89l-1.57,0.18c-0.04-0.52-0.11-0.94-0.18-1.26
		c-0.08-0.32-0.19-0.57-0.33-0.75c-0.14-0.18-0.33-0.3-0.57-0.36c-0.24-0.06-0.55-0.1-0.92-0.1c-0.43,0-0.78,0.04-1.06,0.13
		c-0.28,0.09-0.51,0.22-0.68,0.4c-0.17,0.18-0.29,0.4-0.36,0.66c-0.07,0.26-0.1,0.57-0.1,0.91c0,0.34,0.05,0.65,0.14,0.94
		c0.1,0.29,0.24,0.59,0.45,0.91c0.2,0.31,0.46,0.66,0.78,1.03c0.32,0.37,0.7,0.81,1.15,1.31c0.61,0.68,1.13,1.28,1.58,1.8
		s0.81,1.01,1.1,1.46s0.5,0.92,0.63,1.38c0.13,0.46,0.2,0.99,0.2,1.58c0,1.19-0.33,2.1-0.97,2.75
		C335.49,48.26,334.53,48.59,333.27,48.59z"/>
	<g>
		<g id="R6Black_2_">
			<g id="Siege_2_">
				<path fill="#FFFFFF" d="M193.23,57.74c-2.16,0-3.93-0.27-5.31-0.81c-1.38-0.55-2.47-1.31-3.25-2.29
					c-0.79-0.98-1.34-2.16-1.66-3.54c-0.32-1.38-0.51-2.91-0.57-4.58l7.15-0.91c0.04,1.32,0.13,2.38,0.26,3.16
					c0.13,0.79,0.34,1.39,0.63,1.81c0.28,0.42,0.67,0.69,1.15,0.81c0.49,0.13,1.1,0.19,1.84,0.19c0.72,0,1.31-0.09,1.77-0.26
					c0.46-0.18,0.81-0.41,1.06-0.71c0.25-0.3,0.42-0.67,0.51-1.09c0.08-0.43,0.13-0.9,0.13-1.4c0-0.64-0.12-1.22-0.35-1.74
					c-0.23-0.51-0.6-1.04-1.09-1.59c-0.5-0.54-1.14-1.13-1.92-1.77c-0.79-0.63-1.74-1.39-2.84-2.29c-1.15-0.89-2.2-1.75-3.15-2.58
					c-0.95-0.83-1.77-1.68-2.45-2.58c-0.68-0.9-1.21-1.85-1.59-2.86c-0.38-1.01-0.57-2.15-0.57-3.41c0-1.67,0.24-3.11,0.71-4.3
					s1.15-2.18,2.03-2.95c0.88-0.77,1.94-1.33,3.2-1.69c1.25-0.36,2.66-0.54,4.21-0.54c1.89,0,3.46,0.19,4.73,0.58
					c1.26,0.39,2.3,0.98,3.09,1.78c0.8,0.8,1.41,1.8,1.82,3.02c0.42,1.22,0.71,2.64,0.89,4.27l-7.06,0.67
					c-0.04-0.76-0.12-1.4-0.25-1.92c-0.13-0.53-0.31-0.95-0.57-1.27c-0.25-0.32-0.58-0.56-0.98-0.7c-0.4-0.14-0.9-0.22-1.5-0.22
					c-0.64,0-1.17,0.08-1.59,0.23c-0.42,0.16-0.75,0.37-1.01,0.64c-0.25,0.27-0.43,0.59-0.52,0.96c-0.1,0.37-0.15,0.77-0.15,1.2
					c0,0.54,0.09,1.03,0.28,1.47c0.18,0.44,0.49,0.89,0.92,1.37c0.43,0.48,0.98,0.99,1.65,1.55c0.67,0.55,1.49,1.22,2.46,2
					c1.27,1.03,2.43,2,3.5,2.9c1.07,0.9,1.99,1.84,2.77,2.8c0.78,0.96,1.38,2,1.81,3.11c0.43,1.11,0.64,2.39,0.64,3.85
					c0,1.51-0.19,2.87-0.57,4.05c-0.38,1.19-1,2.2-1.85,3.02c-0.86,0.83-1.97,1.46-3.35,1.89C196.9,57.52,195.22,57.74,193.23,57.74
					z"/>
				<path fill="#FFFFFF" d="M204.74,20.11h7.06v37.4h-7.06V20.11z"/>
				<path fill="#FFFFFF" d="M213.06,20.11h17.59v6.21h-10.53v7.88h8.72v5.87h-8.72v11.29h10.53v6.16h-17.59V20.11z"/>
				<path fill="#FFFFFF" d="M240.92,57.68c-1.54,0-2.9-0.21-4.08-0.63c-1.19-0.42-2.18-1.08-2.97-1.98c-0.8-0.9-1.41-2.05-1.82-3.46
					c-0.42-1.4-0.63-3.08-0.63-5.04V30.73c0-3.85,0.89-6.63,2.67-8.34c1.78-1.71,4.48-2.57,8.09-2.57c2.14,0,3.88,0.27,5.21,0.8
					c1.33,0.54,2.38,1.28,3.14,2.24c0.76,0.96,1.3,2.1,1.62,3.42c0.32,1.31,0.54,2.76,0.66,4.33l-7.18,0.78
					c-0.04-1.13-0.11-2.04-0.2-2.74c-0.1-0.7-0.27-1.25-0.53-1.63c-0.25-0.39-0.61-0.65-1.08-0.79c-0.47-0.13-1.08-0.2-1.84-0.2
					c-0.68,0-1.25,0.1-1.69,0.31c-0.45,0.2-0.8,0.5-1.06,0.89c-0.26,0.39-0.44,0.88-0.54,1.46c-0.1,0.58-0.15,1.24-0.15,1.98v16.19
					c0,0.82,0.05,1.53,0.15,2.13c0.1,0.6,0.29,1.1,0.58,1.5c0.29,0.4,0.69,0.69,1.21,0.88c0.51,0.18,1.18,0.27,2,0.27
					c0.87,0,1.56-0.11,2.06-0.33c0.5-0.22,0.86-0.64,1.11-1.25c0.24-0.62,0.4-1.45,0.47-2.51c0.07-1.06,0.11-2.44,0.13-4.13v-1.08
					h-3.76v-5.81h10.21V57.5h-5.37l-0.44-1.78c-0.72,0.66-1.56,1.15-2.52,1.47C243.38,57.52,242.24,57.68,240.92,57.68z"/>
				<path fill="#FFFFFF" d="M253.98,20.11h17.59v6.21h-10.53v7.88h8.72v5.87h-8.72v11.29h10.53v6.16h-17.59V20.11z"/>
			</g>
			<g id="Filet_2_">
				<path fill="#FFFFFF" d="M174.87,0h3.78v77.71h-3.78V0z"/>
			</g>
			<g id="R6_2_">
				<path fill="#FFFFFF" d="M36.81,54.96L30.6,20.2h-7.33l-5.66,31.91l-2.64-10.39c0.66-0.29,1.24-0.67,1.75-1.15
					c0.51-0.48,0.94-1.08,1.29-1.8c0.35-0.72,0.61-1.58,0.79-2.56c0.18-0.99,0.28-2.13,0.28-3.44v-2.19c0-2.17-0.23-3.92-0.69-5.26
					c-0.46-1.33-1.12-2.37-2-3.11c-0.87-0.74-1.95-1.24-3.23-1.5c-1.28-0.26-2.74-0.39-4.4-0.39H0v36.93h6.62V42.67h1.81l3.69,14.57
					h4.57h2.21h4.24l1.18-6.71h5.14l1.18,6.71h6.16h0.41h6.21V20.31h-6.62V54.96z M12.51,32.87c0,0.83-0.03,1.52-0.1,2.07
					c-0.06,0.56-0.22,1-0.46,1.33c-0.25,0.33-0.61,0.56-1.08,0.7c-0.48,0.15-1.12,0.22-1.94,0.22h-2.3V26.1h2.24
					c0.82,0,1.47,0.09,1.95,0.26c0.49,0.17,0.85,0.44,1.09,0.79c0.25,0.35,0.41,0.81,0.48,1.35c0.07,0.55,0.11,1.2,0.11,1.94V32.87z
					 M24.88,45.14l1.28-8.44l0.85-5.76l0.79,5.76l1.18,8.44H24.88z"/>
				<polygon fill="#FFFFFF" points="57.53,38.55 52.53,20.31 44.5,20.31 44.5,57.24 50.8,57.24 50.8,35.12 57.34,57.24 63.85,57.24 
					63.85,20.31 57.53,20.31 				"/>
				<polygon fill="#FFFFFF" points="164.76,20.3 158.11,20.3 161.58,29.77 				"/>
				<path fill="#FFFFFF" d="M129.57,57.31c-0.78-0.13-1.49-0.31-2.11-0.56c-1.31-0.54-2.34-1.29-3.09-2.27
					c-0.34-0.44-0.63-0.93-0.88-1.46l1.05-6.89l4.5-0.59c0.04,1.31,0.12,2.35,0.25,3.13c0.13,0.78,0.33,1.38,0.59,1.79
					c0.27,0.42,0.63,0.69,1.09,0.81c0.46,0.13,1.04,0.19,1.75,0.19c0.68,0,1.24-0.09,1.68-0.26c0.43-0.17,0.77-0.41,1.01-0.7
					c0.24-0.3,0.4-0.66,0.48-1.08s0.13-0.88,0.13-1.39c0-0.63-0.11-1.21-0.33-1.72c-0.22-0.51-0.57-1.04-1.04-1.57
					c-0.47-0.54-1.08-1.12-1.83-1.75c-0.75-0.63-1.65-1.38-2.7-2.27c-1.09-0.88-2.09-1.74-2.99-2.56c-0.42-0.38-0.81-0.77-1.18-1.17
					l2.55-16.68h-6.26l-2.08,14.92l-0.85,7.03l-0.96-7.03l-2.11-14.92h-6.29l-2.35,14.97l-1.01,6.98l-0.71-6.98l-1.92-14.97h-6.38
					l0.25,1.84c-0.61-0.51-1.32-0.95-2.14-1.29c-1.33-0.56-3.01-0.83-5.05-0.83c-2.03,0-3.69,0.28-4.99,0.85
					c-1.3,0.57-2.34,1.34-3.1,2.32c-0.02,0.03-0.04,0.06-0.07,0.09c-0.35-0.51-0.76-0.96-1.24-1.31c-0.88-0.67-1.97-1.1-3.25-1.33
					c-1.29-0.22-2.75-0.33-4.39-0.33h-8.71v36.93h8.93c1.68,0,3.16-0.11,4.44-0.33c1.29-0.22,2.38-0.68,3.27-1.37
					c0.42-0.32,0.79-0.73,1.11-1.19c0.01,0.02,0.02,0.04,0.04,0.05c0.78,0.97,1.83,1.72,3.13,2.26c1.3,0.54,2.91,0.8,4.83,0.8
					c1.95,0,3.58-0.27,4.9-0.8c1.32-0.54,2.37-1.29,3.16-2.28c0.79-0.98,1.35-2.15,1.68-3.5c0.33-1.36,0.49-2.84,0.49-4.45v-1.96
					l1.75,12.81h6.78l3.42-21.89l3.28,21.9H129.57z M71.52,25.79h2.19c0.82,0,1.47,0.08,1.96,0.23c0.48,0.15,0.85,0.4,1.09,0.75
					c0.25,0.34,0.4,0.79,0.48,1.33c0.07,0.54,0.11,1.19,0.11,1.96v0.52c0,0.82-0.03,1.52-0.1,2.07c-0.06,0.56-0.22,1-0.47,1.35
					c-0.25,0.35-0.61,0.59-1.08,0.73c-0.47,0.15-1.12,0.22-1.94,0.22h-2.24V25.79z M77.62,47.39c0,0.77-0.04,1.42-0.11,1.97
					c-0.07,0.55-0.24,1-0.49,1.35c-0.26,0.36-0.63,0.62-1.12,0.79c-0.49,0.17-1.15,0.26-1.97,0.26h-2.4V40.42h2.46
					c0.82,0,1.47,0.07,1.94,0.2c0.47,0.13,0.84,0.37,1.1,0.69c0.25,0.33,0.42,0.77,0.49,1.32c0.07,0.56,0.11,1.26,0.11,2.11V47.39z
					 M94.23,46.73c0,1.77-0.3,3.01-0.89,3.72c-0.59,0.71-1.49,1.06-2.69,1.06c-0.64,0-1.18-0.08-1.61-0.24
					c-0.44-0.16-0.79-0.44-1.07-0.82c-0.27-0.39-0.47-0.89-0.6-1.5c-0.13-0.61-0.19-1.37-0.19-2.28V30.74
					c0-1.59,0.25-2.76,0.77-3.49c0.51-0.73,1.41-1.09,2.71-1.09c1.31,0,2.24,0.36,2.78,1.07c0.54,0.71,0.81,1.86,0.81,3.46V46.73z"
					/>
				<polygon fill="#FFFFFF" points="160.96,46.32 157.22,57.32 165.04,57.32 				"/>
				<path fill="#FFFFFF" d="M136.89,20.59c1.2,0.38,2.18,0.97,2.94,1.76c0.76,0.79,1.33,1.79,1.73,2.99
					c0.4,1.21,0.68,2.62,0.84,4.23l-6.71,0.66c-0.04-0.75-0.12-1.39-0.24-1.91c-0.12-0.52-0.3-0.94-0.54-1.26
					c-0.24-0.32-0.55-0.55-0.93-0.69c-0.38-0.14-0.86-0.22-1.43-0.22c-0.61,0-1.12,0.08-1.51,0.23c-0.4,0.16-0.71,0.37-0.96,0.64
					c-0.24,0.27-0.41,0.59-0.5,0.95c-0.09,0.37-0.14,0.76-0.14,1.18c0,0.54,0.09,1.03,0.26,1.46c0.18,0.43,0.47,0.89,0.87,1.36
					c0.41,0.47,0.93,0.98,1.57,1.53c0.64,0.55,1.42,1.21,2.34,1.98c1.2,1.02,2.31,1.98,3.33,2.87c1.02,0.9,1.9,1.82,2.63,2.77
					c0.74,0.95,1.31,1.98,1.72,3.07c0.41,1.1,0.61,2.37,0.61,3.81c0,1.5-0.18,2.84-0.54,4.01c-0.36,1.17-0.94,2.17-1.76,2.99
					c-0.81,0.82-1.88,1.45-3.19,1.88c-0.55,0.18-1.15,0.31-1.8,0.42h8.22V20.3h-8.01C136.13,20.38,136.53,20.48,136.89,20.59z"/>
				<polygon fill="#FFFFFF" points="151.32,20.3 150.44,20.3 150.44,57.32 150.74,57.32 157.78,37.8 				"/>
			</g>
		</g>
		<g>
			<g>
				<g>
					<path fill="#FFFFFF" d="M0,12.93h0.18v0.49h0.11v-0.49h0.18v-0.1H0V12.93z M1,13.08c0.01-0.05,0.03-0.12,0.05-0.17h0
						c0,0.06,0,0.12,0,0.16l0.02,0.35h0.11l-0.04-0.59H0.98l-0.1,0.29c-0.01,0.04-0.02,0.09-0.04,0.15h0
						c-0.01-0.06-0.02-0.11-0.04-0.15l-0.1-0.29H0.54L0.5,13.42h0.1l0.02-0.35c0-0.05,0.01-0.11,0.01-0.16h0
						c0.01,0.05,0.03,0.12,0.03,0.16l0.11,0.34h0.11L1,13.08z M97.65,9.95h-4.39c-0.12,0-0.22-0.1-0.22-0.23V9.48
						c0-0.13,0.1-0.23,0.22-0.23h5.71l0.22-1.63h-6.15c-0.85,0-1.54,0.73-1.54,1.63v0.7c0,0.9,0.69,1.63,1.54,1.63h4.39
						c0.12,0,0.22,0.11,0.22,0.23v0.11v0.12c0,0.13-0.1,0.23-0.22,0.23h-5.48l-0.22,1.63h5.92c0.85,0,1.54-0.73,1.54-1.63v-0.7
						C99.19,10.68,98.5,9.95,97.65,9.95z M12.94,9.22h3.07v4.67h1.54V9.22h3.08V7.59h-7.69V9.22z M49.13,9.22l0.22-1.63h-7.69v4.67
						c0,0.9,0.69,1.63,1.54,1.63h6.15l-0.22-1.63h-5.71c-0.12,0-0.22-0.1-0.22-0.23v-2.8H49.13z M79.88,9.22l0.22-1.63h-7.69v4.67
						c0,0.9,0.69,1.63,1.54,1.63h6.15l-0.22-1.63h-5.71c-0.12,0-0.22-0.1-0.22-0.23v-2.8H79.88z M51.63,12.26V7.59H50.1v6.3h4.26
						l0.95-1.63H51.63z M84.69,9.92l-1.84-2.33h-2l3.07,3.9v2.39h1.54V11.5l3.07-3.91h-2L84.69,9.92z M69.99,11.75l-4.62-4.16h-1.54
						v6.3h1.54V9.73l4.62,4.16h1.53v-6.3h-1.53V11.75z M27.52,7.59h-6.15v4.67c0,0.9,0.69,1.63,1.54,1.63h4.62
						c0.85,0,1.53-0.73,1.53-1.63V9.22C29.06,8.33,28.37,7.59,27.52,7.59z M27.52,12.02c0,0.13-0.1,0.23-0.23,0.23h-4.17
						c-0.12,0-0.22-0.1-0.22-0.23v-2.8h4.39c0.13,0,0.23,0.11,0.23,0.23V12.02z M34.31,12.36c-0.48-0.81-1.76-2.96-2.83-4.77H29.8
						v6.3h1.54c0,0,0-1.75,0-3.47c0.6,1.01,1.42,2.41,2.06,3.47h1.81c0.63-1.06,1.46-2.46,2.06-3.47c0,1.72,0,3.47,0,3.47h1.54v-6.3
						h-1.67C36.06,9.4,34.78,11.55,34.31,12.36z M57.95,8.66L57.95,8.66l-3.17,5.23h1.83l1-1.63h3.75v1.63h1.54v-6.3h-3
						C59.43,7.59,58.62,7.59,57.95,8.66z M61.37,10.62H58.6l0.63-1.06c0.1-0.16,0.2-0.26,0.29-0.3c0.09-0.04,0.23-0.04,0.39-0.04
						c0,0,0.89,0,1.46,0V10.62z M88.82,8.39v1.06h1.17l1.47-1.86h-2L88.82,8.39z M12.34,5.87l0,0.05l-0.49-0.11
						c0,0,0-0.22,0.03-0.24c0.02-0.03,0.16-0.1,0.01-0.32l-0.1-0.02l0-0.04c0.05-0.02,0.1-0.08,0.12-0.15
						c0.03-0.12-0.03-0.23-0.13-0.25c-0.09-0.02-0.19,0.05-0.22,0.16c-0.02,0.09,0.01,0.18,0.07,0.23l0,0.04l-0.58-0.07L11.04,5.1
						l-0.77-0.13c0,0-0.16-0.19-0.22-0.23C9.99,4.7,9.69,4.69,9.69,4.69S9.75,4.22,9.72,4.2C9.7,4.18,9.56,4.12,9.5,4.11
						C9.44,4.1,9.35,4.14,9.35,4.14L9.33,4.19c0,0-0.57-0.15-0.63-0.17c-0.07-0.02-0.11-0.04-0.12-0.1c0-0.06-0.07-0.1-0.17-0.12
						C8.31,3.8,8.18,3.84,8.15,3.98c0,0-0.07,0.1-0.11,0.04C8,3.95,8.01,3.87,8.01,3.87s0.04-0.34,0.04-0.36
						C8.1,3.49,8.17,3.48,8.21,3.44c0.01-0.07,0.03-0.13,0.05-0.19c-0.05-0.1-0.02-0.19-0.02-0.29c0.03-0.8-0.44-1.21-1.11-1.24
						C6.67,1.7,6.29,1.92,6.19,2.38C6.08,2.32,6.11,2.49,6.05,2.54C5.97,2.57,6,2.47,5.92,2.5C5.87,2.54,5.83,2.58,5.83,2.68
						c0,0.06,0.14,0.06,0.12,0.15C5.93,2.89,5.83,2.87,5.84,2.96c0,0.06,0.12,0.01,0.12,0.08c-0.09,0.2,0.07,0.37,0.22,0.4
						c0,0.03,0,0.05,0,0.07c-0.08,0-0.12,0.05-0.14,0.22L5.94,3.74c-0.11,0-0.25,0.01-0.39,0.07C5.4,3.85,5.21,4.05,5.07,4.05
						c-0.07,0-0.16,0-0.29,0.08C4.66,4.21,4.66,4.28,4.5,4.35C4.32,4.42,4.14,4.58,4.03,4.66C3.95,4.71,3.86,4.73,3.77,4.83
						c-0.09,0.1-0.21,0.35-0.29,0.46C3.33,5.46,3.19,5.55,3.26,5.83c0.12,0.52,0.3,0.51,0.65,0.44c0.08-0.02,0.2,0.08,0.41,0.02
						c0.3-0.08,0.72-0.14,0.72-0.14s0.07,0.83,0.08,0.88c0,0.01,0,0.02,0.01,0.03h0.01c0,0.07,0.02,0.2,0.17,0.24L5.22,8.11
						L5.15,8.1C5.12,8.12,5.09,8.15,5.08,8.18C5.05,8.26,4.97,8.34,4.97,8.34l-0.14,0.1L4.68,8.54c0,0-0.07-0.14-0.14-0.13
						c-0.07,0.01-0.25,0.17-0.26,0.2c-0.01,0.03,0,0.16,0.02,0.23c0.02,0.07,0.02,0.18-0.04,0.24c-0.06,0.06-0.35,0.56-0.4,0.63
						C3.8,9.79,3.69,9.9,3.69,10c0,0.1-0.02,0.13,0.02,0.15c0.04,0.01,0.07,0.06,0.07,0.06s-0.43,0.52-0.62,0.8
						c-0.07,0.1-0.1,0.18-0.11,0.24c-0.01,0.02-0.01,0.05-0.01,0.07c0,0.06,0,0.09-0.02,0.13c-0.06,0.07-0.54,0.28-0.65,0.43
						c-0.11,0.14,0.03,0.48-0.14,0.65c-0.16,0.17-0.34,0.28-0.34,0.52c0,0.13,0.04,0.2,0.04,0.27c-0.01,0.01-0.02,0.01-0.02,0.03
						c-0.01,0.02-0.01,0.05-0.02,0.07c-0.01,0.01-0.02,0.02-0.03,0.03h0.01c0,0.02,0,0.04,0,0.04c-0.01,0.01-0.04,0.02-0.04,0.06
						c0,0-0.05,0.08-0.07,0.09c-0.02,0.01-0.07,0.08-0.07,0.08s-0.05,0.05-0.08,0.09c-0.04,0.04-0.07,0.08-0.09,0.11
						C1.49,13.94,1.43,14,1.43,14l-0.03,0.06c0,0-0.36,0.22-0.4,0.26c-0.04,0.04-0.09,0.22-0.09,0.28c0,0-0.04,0.01-0.04,0.05
						c-0.01,0.04-0.04,0.21-0.03,0.22c0.01,0.02,0.13,0.23,0.94,0.15c0,0,0.02-0.06,0.04-0.06c0.02,0,0.03,0.03,0.03,0.03l0.06-0.03
						v-0.04l0.03,0l0.01,0.03L2,14.94L2,14.9l0.02-0.01v0.02l0.06-0.03c0,0,0-0.07,0.02-0.06c0.02,0,0.02,0,0.02,0
						s0.04-0.05,0.05-0.08c0-0.02,0.02-0.2,0.03-0.23c0.01-0.03,0.17-0.17,0.24-0.15l0.01,0.03l0.07-0.04c0,0,0.01-0.09,0.03-0.06
						c0.02,0.03,0.11-0.06,0.11-0.06s0.03-0.03,0.05-0.14c0.02-0.11,0.02-0.23,0.02-0.23L2.73,13.8c0,0,0.03-0.06,0.01-0.25
						c0-0.03-0.01-0.05-0.01-0.08l0.13,0c0.11-0.1,0.24-0.21,0.3-0.28c0.13-0.14,0.11-0.32,0.29-0.46c0.18-0.13,0.59-0.38,0.71-0.42
						c0.12-0.04,0.15-0.18,0.18-0.26c0.02-0.08,0.04-0.15,0.04-0.15s0.08-0.03,0.18-0.09c0.04-0.02,0.07-0.04,0.11-0.07
						c0.08-0.05,0.16-0.11,0.22-0.18c0.18-0.2,0.34-0.27,0.45-0.32c0.11-0.05,0.29-0.21,0.49-0.4c0.14-0.12,0.22-0.22,0.3-0.26
						c0.04-0.08,0.1-0.18,0.17-0.28c0,0.03,0,0.05-0.01,0.08c0.03-0.04,0.07-0.06,0.11-0.07c0.05-0.01,0.11,0.02,0.17,0.07
						c0.13,0.09,0.27,0.25,0.38,0.37c0.17,0.18,0.49,0.29,0.59,0.44c0.09,0.15,0.13,0.24,0.23,0.31c0.1,0.08,0.4,0.33,0.49,0.33
						c0.08,0.01,0.05,0.12,0.04,0.22c-0.01,0.1-0.02,0.23,0.05,0.35c0.07,0.12,0.36,0.24,0.37,0.31c0.01,0.07-0.25,0.53-0.14,0.76
						c0.05,0.11,0.11,0.2,0.16,0.27c-0.11,0.21-0.04,0.49-0.04,0.49s0.07,0.06,0.13,0.12c0.06,0.06,0.04,0.08,0.05,0.11
						c0.01,0.03,0,0.03,0.03,0.1c0.02,0.07,0.02,0.03,0,0.07c-0.02,0.04,0.01,0.1-0.02,0.25c-0.03,0.16-0.02,0.35-0.02,0.35
						c-0.02,0.02-0.02,0.05-0.03,0.09c-0.01,0.04-0.02,0.21-0.02,0.21c0.08,0.22,0.44,0.39,0.44,0.39l0.04-0.04
						c0.16,0.04,0.29,0.23,0.3,0.25c0.02,0.01,0.01,0.07,0.01,0.07c0.05,0.12,0.19,0.34,0.19,0.34l0.04-0.03l0.02,0.01l0,0.04
						l0.06,0.04l0.03-0.02l0.03,0.02L10,16.65l0.06,0.03l0.02-0.01l0.04,0.01l0.02,0.05l0.08,0.03l0.01-0.02l0.04,0.02l0,0.03
						c0.64,0.1,0.77-0.22,0.77-0.22s0.01-0.09,0-0.19c-0.01-0.09-0.08-0.15-0.08-0.15c-0.01-0.11-0.01-0.21-0.06-0.29
						c-0.05-0.09-0.66-0.52-0.66-0.52s-0.07-0.09-0.12-0.17c-0.05-0.07-0.09-0.13-0.09-0.13S10,15.03,9.97,14.94
						c-0.03-0.08-0.05-0.13-0.05-0.13s-0.04-0.17-0.03-0.23c0-0.06,0.03-0.26,0.03-0.26L10,14.05c0.09-0.05,0.19-0.11,0.2-0.19
						c0.03-0.15,0.02-0.66-0.07-0.96c-0.09-0.29,0.12-0.75-0.04-1.42c-0.16-0.68-0.93-1.29-1.25-1.75C8.53,9.28,8.59,9.22,8.48,9.06
						C8.45,9.02,8.41,8.96,8.37,8.9c-0.04-0.06-0.1-0.13-0.16-0.19c0-0.02,0-0.05,0-0.06h0c0-0.09,0-0.48,0-0.48l0.06-0.09
						c0,0-0.07-0.23-0.07-0.26c-0.01-0.03,0-0.24,0-0.24s0-0.07,0.06-0.13c0.05-0.06,0.12-0.36,0.13-0.43c0,0,0.1-0.02,0.19-0.08
						C8.65,6.89,8.85,6.7,8.88,6.67c0.03-0.03,0.03-0.03,0.03-0.03l0.03,0.54c0,0,0,0.09,0.15,0.05c0.15-0.03,0.43-0.12,0.43-0.12
						S9.46,6.58,9.5,6.21c0,0,0.06-0.1,0.14-0.09C9.73,6.13,10,6.08,10.11,6.08c0.1,0,0.19,0,0.25-0.06s0.06-0.16,0.15-0.15
						c0.08,0.01,0.92,0.19,1.02,0.21c0.1,0.02,0.23,0.04,0.28-0.09l0.51,0.13L12.3,6.18l0.43,0.1c0,0,0.13-0.12,0.08-0.31
						L12.34,5.87z M7.8,3.8C7.71,3.64,7.72,3.59,7.52,3.84C7.36,4.06,7.01,3.87,6.9,3.73C6.8,3.62,6.76,3.46,6.76,3.46l0-0.06
						c0,0,0.84,0.41,1.28,0.11c0,0,0,0.03-0.01,0.1C8.02,3.7,7.94,4.05,7.8,3.8z M11.67,4.94c0.02-0.06,0.06-0.1,0.11-0.09
						c0.04,0.01,0.07,0.07,0.06,0.13c-0.02,0.06-0.07,0.1-0.11,0.09C11.67,5.06,11.65,5,11.67,4.94z"/>
				</g>
			</g>
		</g>
	</g>
</g>
</svg>
